<svg xmlns="http://www.w3.org/2000/svg" xmlns:xlink="http://www.w3.org/1999/xlink" xmlns:serif="http://www.serif.com/" width="100%" height="100%" viewBox="0 0 2084 2084" xml:space="preserve" style="fill-rule:evenodd;clip-rule:evenodd;stroke-linejoin:round;stroke-miterlimit:2;">  <g>    <path d="M381.496,1228.36l-3.846,12.912l-41.325,-12.296l3.846,-12.917l41.325,12.301Z" style="fill:#9d5b44;fill-rule:nonzero;"></path>    <path d="M272.296,1202.71c-0,0 69.583,72.738 83.808,24.946c14.004,-47.046 -83.808,-24.946 -83.808,-24.946Z" style="fill:#008c51;fill-rule:nonzero;"></path>    <path d="M272.296,1202.71l83.808,24.946c14.004,-47.046 -83.808,-24.946 -83.808,-24.946Z" style="fill:#065b3a;fill-rule:nonzero;"></path>    <path d="M435.142,1333.28l2.854,13.167l-42.146,9.125l-2.85,-13.167l42.142,-9.125Z" style="fill:#9d5b44;fill-rule:nonzero;"></path>    <path d="M327.087,1363.4c0,-0 96.013,30.229 85.463,-18.509c-10.388,-47.97 -85.463,18.509 -85.463,18.509Z" style="fill:#008c51;fill-rule:nonzero;"></path>    <path d="M327.087,1363.4l85.463,-18.509c-10.388,-47.97 -85.463,18.509 -85.463,18.509Z" style="fill:#065b3a;fill-rule:nonzero;"></path>    <path d="M465.558,1390.3l2.367,10.925l-34.971,7.571l-2.366,-10.929l34.97,-7.567Z" style="fill:#9d5b44;fill-rule:nonzero;"></path>    <path d="M375.887,1415.29c0,-0 79.68,25.083 70.921,-15.359c-8.616,-39.808 -70.921,15.359 -70.921,15.359Z" style="fill:#008c51;fill-rule:nonzero;"></path>    <path d="M375.887,1415.29l70.921,-15.359c-8.616,-39.808 -70.921,15.359 -70.921,15.359Z" style="fill:#065b3a;fill-rule:nonzero;"></path>    <path d="M571.442,1596.48c-0,-0 -18.029,-145.171 40.8,-242.904c58.829,-97.733 106.27,-167.946 106.27,-167.946c0,0 14.23,-26.567 61.675,0c47.442,26.571 55.984,22.775 64.521,11.388c8.538,-11.388 1.9,-23.721 -16.129,-60.73c-18.029,-37.004 -114.812,-223.925 -114.812,-223.925l-315.021,-25.621c-0,0 -21.821,2.846 -23.721,19.925c-1.896,17.08 39.854,42.7 39.854,42.7c0,0 29.417,19.925 1.9,61.675c-27.521,41.751 -57.883,116.709 -58.833,186.926l213.496,398.512Z" style="fill:#4ab74b;fill-rule:nonzero;"></path>    <path d="M622.679,1374.45c0,-0 -128.096,277.062 135.684,379.542l222.979,-0c-0,-0 58.829,10.437 58.829,-41.755l-0,-280.858c-0,-0 10.437,-49.342 -57.879,-47.442l-359.613,-9.487Z" style="fill:#00b0b6;fill-rule:nonzero;"></path>    <path d="M993.004,1754.84c-6.858,-0 -11.662,-0.854 -11.662,-0.854l-222.979,-0c-133.821,-51.988 -166.784,-148.913 -166.78,-231.801c0.005,-80.491 31.096,-147.741 31.096,-147.741c0,-0 1.867,65.362 64.188,130.158l-8.946,0c-2.575,0 -4.588,2.083 -4.592,4.55c-0.004,0.279 0.021,0.563 0.075,0.846c2.383,12.883 10.604,45.637 34.517,62.758c-2.617,1.263 -4.429,3.942 -4.429,7.021l-0,0.838c-0,4.287 3.508,7.791 7.791,7.791l108.709,0c56.008,21.196 127.887,36.709 220.179,41.471l-0,82.354c-0,37.284 -30.017,42.609 -47.167,42.609Z" style="fill:#00a5ac;fill-rule:nonzero;"></path>    <path d="M936.733,1588.41l-225.45,0c-4.283,0 -7.791,-3.504 -7.791,-7.791l-0,-0.838c-0,-4.283 3.508,-7.791 7.791,-7.791l225.45,-0c4.288,-0 7.792,3.508 7.792,7.791l0,0.838c0,4.287 -3.504,7.791 -7.792,7.791Z" style="fill:#7acdd1;fill-rule:nonzero;"></path>    <path d="M968.479,1580.2c0,4.533 -3.675,8.208 -8.208,8.208c-4.534,0 -8.209,-3.675 -8.209,-8.208c0,-4.538 3.675,-8.212 8.209,-8.212c4.533,-0 8.208,3.674 8.208,8.212Z" style="fill:#7acdd1;fill-rule:nonzero;"></path>    <path d="M993.308,1580.2c0,4.533 -3.675,8.208 -8.208,8.208c-4.533,0 -8.208,-3.675 -8.208,-8.208c-0,-4.538 3.675,-8.212 8.208,-8.212c4.533,-0 8.208,3.674 8.208,8.212Z" style="fill:#7acdd1;fill-rule:nonzero;"></path>    <path d="M755.642,1476.7l-3.463,19.692l8.063,-0l-4.6,-19.692Z" style="fill:#a02b2b;fill-rule:nonzero;"></path>    <rect x="757.304" y="1483.48" width="78.196" height="27.437" style="fill:#e68950;fill-rule:nonzero;"></rect>    <path d="M755.642,1476.7l3.629,19.692l82.387,-0l-5.162,-19.692l-80.854,0Z" style="fill:#ef4537;fill-rule:nonzero;"></path>    <path d="M677.921,1504.6c-2.863,0 -5.038,2.584 -4.517,5.396c3.296,17.804 17.729,73.554 69.325,73.554l97.754,0c2.534,0 4.588,-2.054 4.588,-4.587l-0,-69.775c-0,-2.534 -2.054,-4.588 -4.588,-4.588l-162.562,0Z" style="fill:#f7e7ef;fill-rule:nonzero;"></path>    <path d="M692.933,1557.73c2.375,3.217 5.021,6.292 7.963,9.137l144.175,0l-0,-9.137l-152.138,-0Z" style="fill:#08413d;fill-rule:nonzero;"></path>    <path d="M736.554,1531.5c0,5.125 -4.154,9.279 -9.279,9.279c-5.125,0 -9.279,-4.154 -9.279,-9.279c-0,-5.129 4.154,-9.283 9.279,-9.283c5.125,-0 9.279,4.154 9.279,9.283Z" style="fill:#e68950;fill-rule:nonzero;"></path>    <path d="M732.933,1531.5c0,3.125 -2.533,5.658 -5.658,5.658c-3.125,0 -5.654,-2.533 -5.654,-5.658c-0,-3.125 2.529,-5.658 5.654,-5.658c3.125,-0 5.658,2.533 5.658,5.658Z" style="fill:#08413d;fill-rule:nonzero;"></path>    <path d="M772.246,1531.5c-0,5.125 -4.158,9.279 -9.284,9.279c-5.125,0 -9.279,-4.154 -9.279,-9.279c0,-5.129 4.154,-9.283 9.279,-9.283c5.126,-0 9.284,4.154 9.284,9.283Z" style="fill:#e68950;fill-rule:nonzero;"></path>    <path d="M768.621,1531.5c-0,3.125 -2.534,5.658 -5.659,5.658c-3.125,0 -5.658,-2.533 -5.658,-5.658c0,-3.125 2.533,-5.658 5.658,-5.658c3.125,-0 5.659,2.533 5.659,5.658Z" style="fill:#08413d;fill-rule:nonzero;"></path>    <path d="M807.933,1531.5c0,5.125 -4.154,9.279 -9.283,9.279c-5.125,0 -9.279,-4.154 -9.279,-9.279c-0,-5.129 4.154,-9.283 9.279,-9.283c5.129,-0 9.283,4.154 9.283,9.283Z" style="fill:#e68950;fill-rule:nonzero;"></path>    <path d="M804.308,1531.5c0,3.125 -2.533,5.658 -5.658,5.658c-3.121,0 -5.654,-2.533 -5.654,-5.658c-0,-3.125 2.533,-5.658 5.654,-5.658c3.125,-0 5.658,2.533 5.658,5.658Z" style="fill:#08413d;fill-rule:nonzero;"></path>    <path d="M840.521,1583.55l0.008,0l-0.008,0Zm0.037,0l0.009,0l-0.009,0Z" style="fill:#78c6cd;fill-rule:nonzero;"></path>    <path d="M840.567,1583.55l-97.838,0c-51.596,0 -66.029,-55.75 -69.325,-73.554c-0.054,-0.283 -0.079,-0.567 -0.075,-0.846c0.004,-2.467 2.017,-4.55 4.592,-4.55l39.958,0c0.029,4.417 0.488,11.888 2.725,20.438c-1.612,1.67 -2.608,3.946 -2.608,6.458c-0,4.904 3.808,8.921 8.629,9.258c3.063,5.863 7.183,11.692 12.721,16.967l-46.413,-0c2.375,3.217 5.021,6.292 7.963,9.137l50.617,0c12.349,7.246 29.187,12.063 52.154,12.063c0.208,0 0.433,0 0.641,-0.004l1.538,-0c15.046,-0 27.771,0.871 38.6,2.317c-0.775,1.354 -2.213,2.283 -3.879,2.316Z" style="fill:#eed7e4;fill-rule:nonzero;"></path>    <path d="M751.513,1566.86l-50.617,0c-2.942,-2.845 -5.588,-5.92 -7.963,-9.137l46.413,-0c3.471,3.304 7.496,6.396 12.167,9.137Z" style="fill:#093d3b;fill-rule:nonzero;"></path>    <path d="M726.625,1540.76c-4.821,-0.337 -8.629,-4.354 -8.629,-9.258c-0,-2.512 0.996,-4.788 2.608,-6.458c0.392,1.491 0.834,3.016 1.342,4.558c-0.213,0.596 -0.325,1.233 -0.325,1.9c-0,2.142 1.187,4.004 2.942,4.967c0.629,1.425 1.312,2.858 2.062,4.291Z" style="fill:#df814e;fill-rule:nonzero;"></path>    <path d="M724.563,1536.47c-1.755,-0.963 -2.942,-2.825 -2.942,-4.967c-0,-0.667 0.112,-1.304 0.325,-1.9c0.733,2.254 1.6,4.554 2.617,6.867Z" style="fill:#093d3b;fill-rule:nonzero;"></path>    <path d="M734.154,1621.57l-0.717,-0.409c-17.779,-30.237 -12.949,-95.529 -11.329,-112.541c-6.92,13.275 -29.116,61.204 -16.225,108.466c0.121,0.438 -0.141,0.892 -0.583,1.017c-0.446,0.117 -0.896,-0.142 -1.017,-0.583c-15.266,-55.98 18.025,-112.767 18.363,-113.338l0.979,-0.358c0.371,0.121 0.604,0.492 0.558,0.883c-0.1,0.808 -9.47,81.338 10.684,115.617c0.233,0.396 0.104,0.9 -0.296,1.129l-0.417,0.117Z" style="fill:#007d7d;fill-rule:nonzero;"></path>    <path d="M772.246,1619.95l-0.638,-0.296c-48,-57.35 -43.641,-114.554 -43.591,-115.125c0.033,-0.4 0.35,-0.716 0.745,-0.754c0.405,-0.046 0.767,0.213 0.88,0.6c0.225,0.808 23.525,81.309 75.095,112.209c0.392,0.233 0.521,0.745 0.284,1.137c-0.238,0.392 -0.746,0.521 -1.138,0.283c-44.762,-26.82 -68.396,-90.416 -74.333,-108.379c0.125,15.017 3.946,61.913 43.329,108.967l-0.1,1.166l-0.533,0.192Z" style="fill:#007d7d;fill-rule:nonzero;"></path>    <path d="M729.967,1612.82l-0.117,-0.009l-0.596,-0.391c-7.912,-13.013 -26.216,-6.204 -26.4,-6.129c-0.433,0.166 -0.908,-0.054 -1.071,-0.475c-0.162,-0.43 0.05,-0.909 0.475,-1.071c0.192,-0.079 19.021,-7.109 27.9,6.012c3.425,-2.696 18.046,-12.771 34.23,-2.5c1.525,-1.75 6.424,-6.812 12.804,-7.583c3.725,-0.454 7.295,0.65 10.608,3.275l0.133,1.167l-1.162,0.137c-2.95,-2.342 -6.109,-3.333 -9.379,-2.929c-6.896,0.829 -12.13,7.475 -12.184,7.542l-1.112,0.179c-17.604,-11.725 -33.413,2.412 -33.571,2.558l-0.558,0.217Z" style="fill:#007d7d;fill-rule:nonzero;"></path>    <path d="M723.279,1585.12l-0.621,-0.279c-7.416,-8.338 -21.025,-1.571 -21.162,-1.5c-0.404,0.204 -0.904,0.042 -1.113,-0.367c-0.208,-0.408 -0.046,-0.908 0.363,-1.116c0.591,-0.301 14.317,-7.126 22.65,1.345c2.858,-1.925 15.141,-9.366 24.162,-2.27c2.075,-2.067 9.588,-8.667 16.684,-4.076c0.383,0.251 0.496,0.763 0.246,1.15c-0.25,0.38 -0.763,0.492 -1.146,0.242c-7.113,-4.6 -15.017,4.271 -15.096,4.359l-1.171,0.079c-9.238,-8.096 -23.158,2.162 -23.3,2.27l-0.496,0.163Z" style="fill:#007d7d;fill-rule:nonzero;"></path>    <path d="M721.617,1563.5l-0.605,-0.254c-6.333,-6.725 -17.045,-2.675 -17.154,-2.63c-0.437,0.167 -0.908,-0.049 -1.075,-0.475c-0.162,-0.424 0.05,-0.904 0.475,-1.07c0.471,-0.188 11.346,-4.313 18.475,2.541c2.267,-1.396 10.559,-5.804 17.159,-0.466c1.333,-1.379 4.829,-4.613 8.625,-4.9c1.846,-0.134 3.483,0.412 4.912,1.645l0.088,1.167l-1.167,0.088c-1.096,-0.942 -2.3,-1.35 -3.704,-1.242c-4.05,0.304 -8.021,4.883 -8.058,4.929l-0.584,0.288l-0.608,-0.213c-6.775,-6.237 -16.2,0.375 -16.296,0.442l-0.483,0.15Z" style="fill:#007d7d;fill-rule:nonzero;"></path>    <path d="M721.113,1541.61l-0.617,-0.275c-4.725,-5.237 -11.254,-1.825 -11.317,-1.787c-0.412,0.208 -0.908,0.062 -1.125,-0.342c-0.217,-0.4 -0.066,-0.904 0.338,-1.116c0.079,-0.038 7.32,-3.834 12.858,1.637c1.708,-0.975 6.688,-3.292 11.25,-0.325c1.483,-0.817 6.104,-3.063 9.617,-1.608c0.42,0.175 0.621,0.662 0.445,1.083c-0.174,0.429 -0.658,0.621 -1.083,0.45c-3.379,-1.408 -8.537,1.733 -8.587,1.758l-0.925,-0.033c-4.659,-3.425 -10.33,0.375 -10.384,0.417l-0.47,0.141Z" style="fill:#007d7d;fill-rule:nonzero;"></path>    <path d="M729.204,1520.73l-0.362,-0.087c-3.717,-1.825 -6.246,-0.138 -6.354,-0.067l-1.126,-0.162c-1.845,-2.33 -4.52,-1.38 -4.545,-1.371c-0.43,0.17 -0.904,-0.059 -1.063,-0.492c-0.158,-0.425 0.058,-0.904 0.492,-1.062c1.216,-0.455 3.912,-0.675 5.946,1.362c1.137,-0.537 3.658,-1.337 6.916,0.092c0.854,-0.571 2.821,-1.605 4.892,-0.754c0.425,0.174 0.629,0.654 0.454,1.083c-0.171,0.425 -0.658,0.616 -1.079,0.45c-1.792,-0.733 -3.612,0.796 -3.633,0.808l-0.538,0.2Z" style="fill:#007d7d;fill-rule:nonzero;"></path>    <path d="M892.517,1662.82c0.833,-0.683 1.666,-1.363 2.504,-2.046c0.733,-0.604 1.517,-1.283 1.683,-2.217c0.196,-1.1 -0.579,-2.191 -1.571,-2.712c-0.987,-0.517 -2.141,-0.588 -3.258,-0.625c-5.558,-0.188 -11.133,0.233 -16.604,1.229c-3.538,0.646 -10.267,1.379 -13.896,3.571c-33.738,3.746 -56.237,27.954 -56.237,27.954c64.35,17.471 129.987,-0 129.987,-0c-14.85,-13.475 -29.196,-21.229 -42.608,-25.154Z" style="fill:#37353b;fill-rule:nonzero;"></path>    <path d="M805.138,1687.98c64.35,17.471 129.987,-0 129.987,-0c-6.387,-5.796 -12.675,-10.479 -18.846,-14.308c-10.691,1.875 -21.2,4.737 -31.862,6.816c-19.138,3.734 -39.075,4.709 -58.075,0.304c-3.205,-0.745 -6.359,-1.708 -9.467,-2.795c-7.508,5.446 -11.737,9.983 -11.737,9.983Z" style="fill:#2b292f;fill-rule:nonzero;"></path>    <path d="M822.121,1675.53c-1.375,-0.912 -3.542,-0.462 -4.521,0.825c-0.562,0.738 -0.696,1.775 -0.342,2.634c0.621,1.483 3.363,0.841 4.425,0.283c0.513,-0.267 1,-0.637 1.25,-1.162c0.429,-0.888 0.009,-2.034 -0.812,-2.58Z" style="fill:#5e5f62;fill-rule:nonzero;"></path>    <path d="M823.958,1675.25l0,0.433l0.8,0.571c0.675,0.158 1.413,0.125 2.034,-0.183c0.62,-0.309 1.104,-0.925 1.166,-1.617l-0.125,-0.625l-0.97,-0.429c-1.188,-0.108 -2.642,0.596 -2.905,1.85Z" style="fill:#5e5f62;fill-rule:nonzero;"></path>    <path d="M822.363,1674.16l0.074,0.495l0.367,0.105c0.404,-0.017 0.783,-0.205 1.129,-0.417l0.509,-0.446l-0.034,-0.629l-0.337,-0.163l-0.6,-0.071c-0.521,0.067 -0.983,0.65 -1.108,1.126Z" style="fill:#5e5f62;fill-rule:nonzero;"></path>    <path d="M818.846,1682.67l0.258,0.733l0.788,0.267c0.983,0.092 2.066,-0.042 2.77,-0.729l0.363,-0.517c0.221,-0.533 0.008,-1.191 -0.437,-1.558c-1.33,-1.096 -3.763,0.121 -3.742,1.804Z" style="fill:#5e5f62;fill-rule:nonzero;"></path>    <path d="M799.817,1687.23l-0.009,0.154c-0.012,0.829 0.642,3.917 7.95,6.625c7.321,2.742 21.434,5.313 48.963,5.313c2.616,-0 5.358,-0.021 8.229,-0.071c0.383,-0.004 0.688,-0.321 0.683,-0.704c-0.008,-0.388 -0.325,-0.692 -0.708,-0.688c-2.862,0.05 -5.596,0.075 -8.204,0.075c-27.438,0 -41.433,-2.583 -48.475,-5.229c-7.063,-2.679 -7.029,-5.212 -7.046,-5.321l-0.15,0l0.15,0.021l-0,-0.021l-0.15,0l0.15,0.021c0.046,-0.383 -0.225,-0.729 -0.604,-0.779c-0.384,-0.046 -0.729,0.225 -0.779,0.604Z" style="fill:#7acdd1;fill-rule:nonzero;"></path>    <path d="M800.092,1696.3c0.15,0.112 10.921,8.033 45.712,8.033c0.659,0 1.321,-0.004 1.996,-0.008c0.383,-0.004 0.692,-0.317 0.692,-0.7c-0.005,-0.383 -0.317,-0.692 -0.705,-0.692c-0.67,0.004 -1.329,0.009 -1.983,0.009c-17.291,-0 -28.554,-1.967 -35.471,-3.921c-3.454,-0.975 -5.829,-1.95 -7.325,-2.671c-0.75,-0.358 -1.279,-0.659 -1.621,-0.863l-0.366,-0.233l-0.1,-0.067l-0.971,0.142l0.142,0.971Z" style="fill:#7acdd1;fill-rule:nonzero;"></path>    <path d="M937.658,1686.86l0.071,-0.075l-0.075,0.07l0.004,0.005l0.071,-0.075l-0.075,0.07c0.042,0.042 0.321,0.375 0.313,0.8c-0.005,0.342 -0.134,0.85 -0.921,1.567c-2.354,2.175 -10.625,5.412 -34.434,7.475c-0.383,0.033 -0.666,0.371 -0.633,0.754c0.034,0.379 0.371,0.663 0.754,0.629c15.942,-1.4 24.98,-3.262 30.1,-5.1c2.563,-0.92 4.154,-1.833 5.146,-2.725c0.992,-0.883 1.384,-1.808 1.379,-2.6c-0.016,-1.125 -0.691,-1.745 -0.746,-1.808l-0.983,0.029l0.029,0.984Z" style="fill:#7acdd1;fill-rule:nonzero;"></path>    <path d="M941.125,1691.5l-0.033,0.05c-0.492,0.654 -6.092,7.504 -29.063,9.037c-0.383,0.025 -0.675,0.359 -0.65,0.742c0.029,0.383 0.359,0.671 0.742,0.646c24.754,-1.633 30.033,-9.492 30.175,-9.721l-0.209,-0.958l-0.962,0.204Z" style="fill:#7acdd1;fill-rule:nonzero;"></path>    <path d="M353.904,1194.25c-12.771,-40.25 11.479,-85.225 39.321,-116.971c10.679,-12.183 25.658,-23.463 41.6,-20.592c15.125,2.721 25.25,17.092 39.204,23.538c25.817,11.929 56.6,-5.775 84.296,0.717c18.8,4.404 34.196,20.845 37.354,39.9c3.321,19.987 -5.779,39.716 -14.637,57.937c-8.2,16.867 -16.4,33.733 -24.6,50.6c-9.188,18.908 -18.4,37.858 -25.534,57.629c-21.312,59.054 -23.254,124.917 -5.458,185.121c1.496,5.054 3.129,10.458 1.571,15.496c-1.563,5.033 -7.909,8.875 -12.259,5.891c0,0 -140.891,-236.341 -160.858,-299.266Z" style="fill:#7dc572;fill-rule:nonzero;"></path>    <path d="M485.804,1357.86c2.65,-59.558 26.204,-116.412 56.134,-167.975c6.541,-11.275 13.675,-24.025 10.27,-36.608c-2.116,-7.821 -8.146,-14.133 -15.129,-18.238c-8.071,-4.741 -17.625,-6.908 -26.95,-6.112c-9.346,0.804 -18.183,4.45 -27.35,6.417c-9.167,1.971 -19.521,2.008 -27.016,-3.63c-12.617,-9.487 -11.109,-29.604 -21.534,-41.454c-6.933,-7.883 -18.321,-10.771 -28.75,-9.516c-7.325,0.879 -14.262,3.554 -20.846,6.975c-23.916,30.725 -42.162,70.504 -30.729,106.529c15.554,49.021 104.5,203.283 143.046,269.062c-6.892,-34.941 -12.729,-70 -11.146,-105.45Z" style="fill:#69bf62;fill-rule:nonzero;"></path>    <path d="M404.804,1138.33l-10.167,17.092l-54.683,-32.525l10.163,-17.083l54.687,32.516Z" style="fill:#9d5b44;fill-rule:nonzero;"></path>    <path d="M257.821,1062.2c-0,-0 73.3,129.2 110.908,65.95c37.025,-62.258 -110.908,-65.95 -110.908,-65.95Z" style="fill:#008c51;fill-rule:nonzero;"></path>    <path d="M257.821,1062.2l110.908,65.95c37.025,-62.258 -110.908,-65.95 -110.908,-65.95Z" style="fill:#065b3a;fill-rule:nonzero;"></path>    <path d="M485.971,1130.46l-10.163,17.087l-54.683,-32.521l10.163,-17.087l54.683,32.521Z" style="fill:#9d5b44;fill-rule:nonzero;"></path>    <path d="M338.992,1054.33c-0,-0 73.295,129.2 110.908,65.954c37.025,-62.258 -110.908,-65.954 -110.908,-65.954Z" style="fill:#008c51;fill-rule:nonzero;"></path>    <path d="M338.992,1054.33l110.908,65.954c37.025,-62.258 -110.908,-65.954 -110.908,-65.954Z" style="fill:#065b3a;fill-rule:nonzero;"></path>    <path d="M441.704,1218.79l-9.158,15.395l-49.283,-29.304l9.158,-15.4l49.283,29.309Z" style="fill:#9d5b44;fill-rule:nonzero;"></path>    <path d="M309.25,1150.17c0,0 66.05,116.429 99.946,59.438c33.362,-56.109 -99.946,-59.438 -99.946,-59.438Z" style="fill:#008c51;fill-rule:nonzero;"></path>    <path d="M309.25,1150.17l99.946,59.438c33.362,-56.109 -99.946,-59.438 -99.946,-59.438Z" style="fill:#065b3a;fill-rule:nonzero;"></path>    <path d="M487.846,1319.03l-11.863,19.954l-63.845,-37.966l11.866,-19.954l63.842,37.966Z" style="fill:#9d5b44;fill-rule:nonzero;"></path>    <path d="M316.25,1230.15c0,-0 85.575,150.837 129.483,77c43.225,-72.688 -129.483,-77 -129.483,-77Z" style="fill:#008c51;fill-rule:nonzero;"></path>    <path d="M316.25,1230.15l129.483,77c43.225,-72.688 -129.483,-77 -129.483,-77Z" style="fill:#065b3a;fill-rule:nonzero;"></path>    <path d="M477.075,1072.29l-0.321,0.663c-1.65,3.396 -5.775,4.825 -9.171,3.179l-178.204,-86.546c-3.396,-1.65 -4.825,-5.775 -3.175,-9.17l0.321,-0.663c1.65,-3.396 5.775,-4.825 9.171,-3.175l178.204,86.538c3.396,1.654 4.825,5.779 3.175,9.174Z" style="fill:#ebeceb;fill-rule:nonzero;"></path>    <path d="M279.971,1065.8c-0,0 24.658,-45.367 9.804,-83.196c-23.237,33.342 -9.804,83.196 -9.804,83.196Z" style="fill:#ebeceb;fill-rule:nonzero;"></path>    <path d="M289.775,982.604l-9.804,83.196c-0,0 24.658,-45.367 9.804,-83.196Z" style="fill:#00afaf;fill-rule:nonzero;"></path>    <path d="M364.012,943.792c0,-0 -51.366,5.221 -74.237,38.812c40.638,0.392 74.237,-38.812 74.237,-38.812Z" style="fill:#ebeceb;fill-rule:nonzero;"></path>    <path d="M289.775,982.604l74.237,-38.812c0,-0 -51.366,5.221 -74.237,38.812Z" style="fill:#00afaf;fill-rule:nonzero;"></path>    <path d="M224.771,929.767c-0,-0 25.108,45.12 65.004,52.837c-15.704,-37.479 -65.004,-52.837 -65.004,-52.837Z" style="fill:#ebeceb;fill-rule:nonzero;"></path>    <path d="M289.775,982.604l-65.004,-52.837c-0,-0 25.108,45.12 65.004,52.837Z" style="fill:#00afaf;fill-rule:nonzero;"></path>    <path d="M300.383,966.183c9.255,4.492 13.113,15.638 8.617,24.892c-4.492,9.254 -15.638,13.113 -24.892,8.621c-9.254,-4.496 -13.112,-15.642 -8.621,-24.896c4.496,-9.254 15.642,-13.113 24.896,-8.617Z" style="fill:#ebeceb;fill-rule:nonzero;"></path>    <path d="M297.65,971.808c6.146,2.984 8.708,10.388 5.725,16.534c-2.987,6.146 -10.387,8.708 -16.537,5.725c-6.146,-2.984 -8.709,-10.388 -5.721,-16.534c2.983,-6.146 10.383,-8.708 16.533,-5.725Z" style="fill:#00afaf;fill-rule:nonzero;"></path>    <path d="M602.775,1014.88l-0.379,0.788c-1.954,4.017 -6.834,5.704 -10.85,3.754l-210.767,-102.354c-4.012,-1.95 -5.704,-6.829 -3.754,-10.846l0.383,-0.783c1.946,-4.017 6.83,-5.704 10.846,-3.759l210.767,102.354c4.017,1.955 5.704,6.834 3.754,10.846Z" style="fill:#ebeceb;fill-rule:nonzero;"></path>    <path d="M351.204,1003.23c0,-0 38.808,-47.15 30.05,-94.408c-34.467,33.5 -30.05,94.408 -30.05,94.408Z" style="fill:#ebeceb;fill-rule:nonzero;"></path>    <path d="M381.254,908.817l-30.05,94.408c0,-0 38.808,-47.15 30.05,-94.408Z" style="fill:#00afaf;fill-rule:nonzero;"></path>    <path d="M476.167,880.4c-0,-0 -60.825,-5.467 -94.913,28.417c47.1,9.575 94.913,-28.417 94.913,-28.417Z" style="fill:#ebeceb;fill-rule:nonzero;"></path>    <path d="M381.254,908.817l94.913,-28.417c-0,-0 -60.825,-5.467 -94.913,28.417Z" style="fill:#00afaf;fill-rule:nonzero;"></path>    <path d="M317.621,832.875c-0,0 19.029,58.025 63.633,75.942c-9.833,-47.05 -63.633,-75.942 -63.633,-75.942Z" style="fill:#ebeceb;fill-rule:nonzero;"></path>    <path d="M381.254,908.817l-63.633,-75.942c-0,0 19.029,58.025 63.633,75.942Z" style="fill:#00afaf;fill-rule:nonzero;"></path>    <path d="M393.796,889.392c10.946,5.316 15.508,18.5 10.192,29.441c-5.313,10.946 -18.496,15.509 -29.442,10.196c-10.946,-5.316 -15.509,-18.5 -10.192,-29.441c5.313,-10.946 18.496,-15.509 29.442,-10.196Z" style="fill:#ebeceb;fill-rule:nonzero;"></path>    <path d="M390.563,896.046c7.27,3.533 10.3,12.287 6.77,19.558c-3.529,7.267 -12.283,10.3 -19.554,6.771c-7.271,-3.533 -10.304,-12.288 -6.771,-19.558c3.529,-7.267 12.284,-10.3 19.555,-6.771Z" style="fill:#00afaf;fill-rule:nonzero;"></path>    <path d="M596.667,1166.46c-10.475,-0.967 -17.067,-12.196 -18.442,-22.626c-1.7,-12.87 2.254,-26.799 11.867,-35.533c9.612,-8.729 25.062,-11.108 36.012,-4.129c0.738,-8.129 2.142,-16.496 6.65,-23.292c4.508,-6.804 12.846,-11.654 20.804,-9.833c-1.133,-15.75 13.429,-30.783 29.209,-30.15l-83.938,125.992l-2.162,-0.429Z" style="fill:#065b3a;fill-rule:nonzero;"></path>    <path d="M571.504,1303.94c-1.662,-3.146 -1.475,-7.188 0.467,-10.167c1.946,-2.983 5.571,-4.779 9.121,-4.525c-3.409,-4.646 -0.067,-11.083 3.245,-15.804c-5.499,-2.788 -10.745,-6.713 -13.329,-12.313c-3.933,-8.533 -0.758,-18.687 4.017,-26.779c3.008,-5.096 6.75,-9.929 11.775,-13.054c5.021,-3.129 11.508,-4.325 16.958,-2.017c-1.987,-4.017 -1.412,-9.166 1.413,-12.641c2.825,-3.48 7.754,-5.096 12.092,-3.971c-0.242,-4.813 2.141,-9.675 6.087,-12.434c3.946,-2.762 9.325,-3.333 13.767,-1.458l-63.046,119.271l-2.567,-4.108Z" style="fill:#065b3a;fill-rule:nonzero;"></path>    <path d="M424.179,1243.76c-1.662,-3.146 -1.479,-7.187 0.467,-10.166c1.946,-2.979 5.571,-4.78 9.121,-4.525c-3.409,-4.65 -0.067,-11.088 3.241,-15.805c-5.495,-2.787 -10.741,-6.716 -13.325,-12.312c-3.937,-8.529 -0.762,-18.692 4.013,-26.779c3.012,-5.096 6.754,-9.929 11.775,-13.054c5.025,-3.125 11.512,-4.325 16.958,-2.017c-1.987,-4.017 -1.408,-9.171 1.417,-12.646c2.825,-3.479 7.75,-5.091 12.087,-3.971c-0.237,-4.808 2.142,-9.67 6.092,-12.429c3.942,-2.758 9.325,-3.333 13.763,-1.458l-63.046,119.266l-2.563,-4.104Z" style="fill:#008c51;fill-rule:nonzero;"></path>    <path d="M467.158,1352.82l2.85,13.171l-42.141,9.12l-2.85,-13.166l42.141,-9.125Z" style="fill:#9d5b44;fill-rule:nonzero;"></path>    <path d="M359.1,1382.93c-0,0 96.017,30.233 85.462,-18.5c-10.383,-47.975 -85.462,18.5 -85.462,18.5Z" style="fill:#008c51;fill-rule:nonzero;"></path>    <path d="M359.1,1382.93l85.462,-18.5c-10.383,-47.975 -85.462,18.5 -85.462,18.5Z" style="fill:#065b3a;fill-rule:nonzero;"></path>    <path d="M983.604,1412.25l-153.137,0c-1.35,0 -2.454,-1.104 -2.454,-2.45l-0,-89.412c-0,-1.35 1.104,-2.455 2.454,-2.455l153.137,0c1.35,0 2.454,1.105 2.454,2.455l0,89.412c0,1.346 -1.104,2.45 -2.454,2.45Z" style="fill:#d4d3d3;fill-rule:nonzero;"></path>    <path d="M958.008,1331.53l-122.925,-0c-0.895,-0 -1.633,-0.733 -1.633,-1.633l-0,-1.713c-0,-0.9 0.738,-1.637 1.633,-1.637l122.925,-0c0.9,-0 1.634,0.737 1.634,1.637l-0,1.713c-0,0.9 -0.734,1.633 -1.634,1.633Z" style="fill:#a3a9aa;fill-rule:nonzero;"></path>    <path d="M966.387,1329.03c0,1.379 -1.112,2.492 -2.491,2.492c-1.379,-0 -2.492,-1.113 -2.492,-2.492c0,-1.375 1.113,-2.491 2.492,-2.491c1.379,-0 2.491,1.116 2.491,2.491Z" style="fill:#a3a9aa;fill-rule:nonzero;"></path>    <path d="M973.958,1329.03c0,1.379 -1.116,2.492 -2.491,2.492c-1.375,-0 -2.492,-1.113 -2.492,-2.492c0,-1.375 1.117,-2.491 2.492,-2.491c1.375,-0 2.491,1.116 2.491,2.491Z" style="fill:#a3a9aa;fill-rule:nonzero;"></path>    <path d="M954.096,1342.58l-94.117,0c-1.35,0 -2.454,1.1 -2.454,2.455l-0,25.375c-0,1.35 1.104,2.449 2.454,2.449l94.117,0c1.35,0 2.45,-1.099 2.45,-2.449l-0,-25.375c-0,-1.355 -1.1,-2.455 -2.45,-2.455Z" style="fill:#47454a;fill-rule:nonzero;"></path>    <path d="M851.721,1373.79l-0,35.867c-0,5.596 4.537,10.138 10.137,10.138l90.359,-0c5.596,-0 10.133,-4.542 10.133,-10.138l0,-35.867c0,-5.599 -4.537,-10.141 -10.133,-10.141l-90.359,-0c-5.6,-0 -10.137,4.542 -10.137,10.141Z" style="fill:#00b0b6;fill-rule:nonzero;"></path>    <path d="M844.392,1419.34c-0.517,-4.85 2.216,-10.125 6.829,-11.721c4.612,-1.592 10.504,1.533 11.046,6.383c2.558,-2.092 6.65,-1.983 9.091,0.238c1.504,-2.563 5.288,-3.438 7.763,-1.788c0.896,-5.466 6.041,-9.925 11.583,-10.021c5.542,-0.095 10.846,4.171 11.929,9.609c2.65,-2.759 8.067,-1.7 9.479,1.854c3.109,-1.738 7.476,-0.688 9.451,2.275c2.274,-2.888 7.154,-3.183 9.749,-0.579c1.601,-1.913 4.584,-2.492 6.788,-1.325c2.271,-3.971 6.204,-7.292 10.771,-7.575c4.566,-0.279 9.375,3.379 9.258,7.95c3.609,-4.246 12,-1.709 12.65,3.829c3.667,-4.321 12.142,-1.979 13.075,3.604l-139.525,0l0.063,-2.733Z" style="fill:#0cbbc3;fill-rule:nonzero;"></path>    <path d="M856.367,1372.85c-0.2,1.392 0.508,3.337 1.879,3.041c0.717,-0.149 1.133,-0.87 1.504,-1.495c0.617,-1.05 1.342,-2.159 2.275,-2.954c0.317,-0.271 0.7,-0.517 1.112,-0.48l0.4,0.209l0.051,0.516c-0.13,0.634 -0.488,1.225 -0.475,1.871l0.225,0.317c0.495,0.171 1.045,0.012 1.525,-0.196c0.445,-0.2 0.82,-0.538 1.258,-0.733l1.137,-0.317c1.092,-0.358 2.188,-0.712 3.28,-1.071c0.545,-0.179 1.258,-0.3 1.587,0.167c0.287,0.417 0.046,1.004 0.229,1.475c0.246,0.641 1.163,0.737 1.783,0.442c0.621,-0.292 1.088,-0.842 1.684,-1.184c1.129,-0.654 2.525,-0.5 3.817,-0.367c5.104,0.526 10.27,0.396 15.341,-0.375c1.592,-0.241 3.213,-0.545 4.792,-0.254c0.929,0.175 1.808,0.55 2.733,0.734c2.479,0.487 4.996,-0.438 7.513,-0.667c2.616,-0.238 5.291,0.292 7.854,-0.279c1.471,-0.329 2.841,-1.009 4.292,-1.404c2.229,-0.609 4.575,-0.542 6.879,-0.471c7.979,0.258 16.025,0.516 23.787,2.387c1.621,0.384 3.942,0.446 4.292,-1.183c0.225,-1.029 -0.696,-2.021 -1.721,-2.287c-1.017,-0.276 -2.096,-0.034 -3.133,0.145c-2.604,0.446 -5.275,0.504 -7.896,0.171c-1.892,-0.246 -3.746,-0.687 -5.629,-0.983c-5.046,-0.796 -10.188,-0.525 -15.292,-0.258c-15.412,0.816 -30.829,1.637 -46.242,2.454c-0.533,0.029 -1.221,-0.046 -1.375,-0.559l0,-0.633c0.042,-1.212 -1.387,-2.025 -2.591,-1.875c-0.417,0.046 -0.825,0.171 -1.217,0.321c-1.383,0.542 -2.558,1.516 -3.942,2.042c-0.441,0.166 -0.979,0.308 -1.408,0.029c-0.583,-0.384 -0.754,-1.146 -0.571,-1.775c0.121,-0.421 0.238,-0.938 -0.075,-1.242l-0.408,-0.192l-1.033,0.359l-0.726,0.854l-0.82,0.95l-0.525,0.271l-0.346,-0.546l0.329,-0.629c0.317,-0.413 0.633,-0.825 0.954,-1.242l0.234,-0.4c0.12,-0.413 -0.234,-0.858 -0.651,-0.967c-0.42,-0.104 -0.866,0.038 -1.254,0.229c-0.77,0.384 -1.646,1.034 -2.158,1.738c-0.462,0.633 -0.979,1.242 -1.425,1.892c-0.887,1.304 -1.608,2.825 -1.833,4.404Z" style="fill:#00b4b9;fill-rule:nonzero;"></path>    <path d="M958.95,1305.03l-103.829,0c-1.35,0 -2.45,-1.108 -2.45,-2.454l-0,-43.658c-0,-1.354 1.1,-2.454 2.45,-2.454l103.829,-0c1.35,-0 2.454,1.1 2.454,2.454l0,43.658c0,1.346 -1.104,2.454 -2.454,2.454Z" style="fill:#f9a144;fill-rule:nonzero;"></path>    <path d="M909.292,1259.25l-16.988,22.562l14.863,0l-7.43,20.434l22.03,-27.604l-14.734,-0.263l2.259,-15.129Z" style="fill:#fff;fill-rule:nonzero;"></path>    <path d="M862.646,1303.19l-0,18.4c-0,0.384 0.308,0.696 0.696,0.696c0.383,0 0.696,-0.312 0.696,-0.696l-0,-18.4c-0,-0.387 -0.313,-0.695 -0.696,-0.695c-0.388,-0 -0.696,0.308 -0.696,0.695Z" style="fill:#221921;fill-rule:nonzero;"></path>    <path d="M950.033,1303.19l0,18.4c0,0.384 0.313,0.696 0.696,0.696c0.383,0 0.696,-0.312 0.696,-0.696l-0,-18.4c-0,-0.387 -0.313,-0.695 -0.696,-0.695c-0.383,-0 -0.696,0.308 -0.696,0.695Z" style="fill:#221921;fill-rule:nonzero;"></path>    <path d="M692.667,1733.82c-10.442,-2.121 -21.842,-2.475 -31.175,2.662c-3.175,1.75 -6.196,4.375 -6.963,7.913c-1.129,5.2 3.221,10.312 8.271,11.987c5.05,1.675 10.546,0.817 15.8,-0.012c9.725,-1.525 19.546,-2.821 29.404,-2.842c4.854,-0.008 9.717,0.279 14.513,1.046c2.229,0.358 11.495,4.012 13.025,3.096c5.491,-3.279 -13.159,-12.888 -15.875,-14.296c-8.504,-4.404 -17.613,-7.646 -27,-9.554Z" style="fill:#00b0b6;fill-rule:nonzero;"></path>    <path d="M649.612,1702.34c-1.537,-1.741 -3.008,-3.6 -4.924,-4.92c-1.913,-1.321 -4.413,-2.042 -6.596,-1.242c-2.092,0.771 -3.505,2.787 -4.192,4.904c-1.683,5.175 0.4,11.046 4.167,14.975c3.762,3.929 8.954,6.188 14.187,7.663c6.254,1.766 12.779,2.55 19.271,2.337c3.5,-0.112 13.896,-0.487 7.658,-5.204c-4.237,-3.208 -11.512,-4.246 -16.291,-7.254c-4.925,-3.104 -9.421,-6.9 -13.28,-11.259Z" style="fill:#00b0b6;fill-rule:nonzero;"></path>    <path d="M1096.11,584.921c0,-0 -182.412,-244.738 -398.299,-61.779l-106.359,195.979c0,-0 -37.233,46.729 8.633,71.621c45.867,24.891 246.85,133.962 246.85,133.962c0,0 38.388,32.708 69.305,-28.241l179.87,-311.542Z" style="fill:#036f42;fill-rule:nonzero;"></path>    <path d="M767,550.137c-40.729,0 -68.75,-23.654 -69.225,-24.062c-0.779,-0.675 -0.858,-1.854 -0.183,-2.633c0.675,-0.78 1.862,-0.863 2.633,-0.188c0.779,0.667 78.208,65.842 162.55,-25.9c0.417,-0.45 1.054,-0.654 1.633,-0.583c0.609,0.087 1.138,0.462 1.417,1.012c0.117,0.234 12,23.292 42.033,32.796c30.255,9.588 67.655,2.621 111.18,-20.687c0.733,-0.4 1.658,-0.255 2.237,0.354c2.354,2.471 58.321,59.837 115.362,9.862c0.78,-0.675 1.955,-0.604 2.642,0.175c0.679,0.779 0.6,1.955 -0.175,2.638c-55.487,48.612 -111.342,-1.213 -119.516,-9.083c-43.98,23.299 -81.967,30.116 -112.95,20.279c-26.163,-8.313 -38.963,-26 -42.85,-32.354c-35.03,37.266 -68.896,48.374 -96.788,48.374Z" style="fill:#0b331f;fill-rule:nonzero;"></path>    <path d="M864.15,673.742c-1.033,-0 -1.871,-0.838 -1.871,-1.871l0,-173.25c0,-1.034 0.838,-1.871 1.871,-1.871c1.038,0 1.875,0.837 1.875,1.871l-0,173.25c-0,1.033 -0.837,1.871 -1.875,1.871Z" style="fill:#0b331f;fill-rule:nonzero;"></path>    <path d="M1019.92,614.471c-1.033,-0 -1.871,-0.838 -1.871,-1.871l0,-101.058c0,-1.038 0.838,-1.875 1.871,-1.875c1.033,-0 1.871,0.837 1.871,1.875l-0,101.058c-0,1.033 -0.838,1.871 -1.871,1.871Z" style="fill:#0b331f;fill-rule:nonzero;"></path>    <path d="M766.692,550.208l-0.817,-0.191c-0.929,-0.45 -1.317,-1.571 -0.867,-2.5c4.1,-8.425 14.913,-12.621 23.634,-9.167c1.908,0.754 3.625,1.8 5.283,2.808c1.162,0.709 2.333,1.425 3.558,2.021c1.863,0.9 4.688,1.888 7.567,1.459c2.504,-0.367 4.713,-1.875 5.621,-3.838c0.775,-1.662 0.771,-3.729 0.771,-5.917c-0.005,-2.879 -0.009,-6.145 1.987,-8.791c2.775,-3.68 7.958,-4.096 11.875,-3.271c1.508,0.317 2.979,0.787 4.454,1.267c2.013,0.645 3.921,1.258 5.863,1.437c1.046,0.088 2.487,0.062 3.383,-0.65c1.309,-1.042 1.313,-3.117 1.167,-6.171c-0.159,-3.325 -0.333,-7.092 2.758,-9.321c2.45,-1.758 5.279,-1.241 7.771,-0.795c0.921,0.166 1.846,0.341 2.746,0.37c2.029,0.092 4.15,-0.929 5.679,-2.687c1.529,-1.754 2.229,-3.992 1.875,-5.983c-0.183,-1.017 0.496,-1.988 1.513,-2.171c1.041,-0.167 1.991,0.495 2.17,1.512c0.559,3.146 -0.441,6.458 -2.737,9.096c-2.3,2.646 -5.438,4.129 -8.646,3.971c-1.062,-0.038 -2.171,-0.234 -3.267,-0.434c-2.021,-0.362 -3.766,-0.683 -4.916,0.155c-1.354,0.975 -1.359,2.958 -1.209,6.108c0.154,3.267 0.33,6.967 -2.579,9.275c-1.496,1.196 -3.521,1.7 -6.05,1.45c-2.354,-0.213 -4.55,-0.921 -6.671,-1.604c-1.35,-0.438 -2.7,-0.875 -4.075,-1.167c-2.787,-0.583 -6.4,-0.416 -8.116,1.863c-1.242,1.65 -1.238,4.025 -1.238,6.537c0.004,2.496 0.004,5.079 -1.116,7.492c-1.446,3.125 -4.688,5.412 -8.467,5.967c-3.025,0.445 -6.396,-0.171 -9.746,-1.796c-1.329,-0.646 -2.6,-1.417 -3.871,-2.188c-1.596,-0.975 -3.1,-1.887 -4.717,-2.525c-6.833,-2.712 -15.666,0.709 -18.891,7.325c-0.325,0.667 -0.988,1.054 -1.679,1.054Z" style="fill:#0b331f;fill-rule:nonzero;"></path>    <path d="M1020.48,601.263c-0.938,-0 -1.75,-0.709 -1.854,-1.667c-0.179,-1.579 -0.713,-3.171 -1.284,-4.854c-0.925,-2.742 -1.879,-5.58 -1.354,-8.675c0.213,-1.288 0.659,-2.434 1.092,-3.542c0.221,-0.571 0.446,-1.142 0.625,-1.721c0.942,-3.016 0.642,-6.341 -0.817,-9.137c-0.545,-1.05 -1.25,-2.063 -1.945,-3.08c-1.842,-2.687 -3.93,-5.733 -3.355,-9.42c0.675,-4.346 4.646,-6.85 7.838,-8.859c3.55,-2.241 5.254,-4.408 5.079,-6.454c-0.187,-2.166 -2.575,-3.862 -4.858,-4.579c-1.271,-0.396 -2.584,-0.625 -3.896,-0.858c-1.717,-0.309 -3.5,-0.625 -5.242,-1.284c-2.858,-1.083 -4.475,-3.25 -4.121,-5.52c0.246,-1.563 1.313,-2.609 2.321,-3.425c3.104,-2.521 6.613,-4.421 10.421,-5.646c0.983,-0.304 2.042,0.225 2.354,1.212c0.313,0.984 -0.225,2.033 -1.212,2.35c-3.317,1.067 -6.496,2.788 -9.209,4.988c-0.612,0.495 -0.941,0.866 -0.979,1.104c-0.054,0.341 0.7,1.046 1.75,1.441c1.417,0.534 2.946,0.809 4.571,1.096c1.471,0.263 2.938,0.53 4.358,0.975c3.375,1.054 7.113,3.671 7.467,7.83c0.308,3.599 -1.917,6.845 -6.8,9.924c-2.696,1.701 -5.733,3.617 -6.146,6.28c-0.35,2.225 1.154,4.412 2.746,6.729c0.783,1.146 1.563,2.287 2.179,3.471c1.909,3.662 2.296,8.025 1.067,11.97c-0.204,0.663 -0.454,1.321 -0.713,1.971c-0.379,0.975 -0.741,1.896 -0.887,2.796c-0.367,2.179 0.4,4.458 1.212,6.867c0.609,1.796 1.234,3.658 1.454,5.641c0.117,1.021 -0.625,1.946 -1.654,2.063l-0.208,0.013Z" style="fill:#0b331f;fill-rule:nonzero;"></path>    <path d="M937.983,543.675c-2.333,-0 -4.558,-1.675 -6.054,-3.562c-1.371,-1.717 -2.533,-3.609 -3.45,-5.625c-0.35,-0.775 -0.579,-1.284 -0.858,-1.551c-0.467,-0.45 -1.509,-0.45 -2.363,0.009c-1.104,0.587 -2,1.737 -2.866,2.854c-0.629,0.812 -1.809,0.958 -2.625,0.321c-0.817,-0.629 -0.959,-1.809 -0.325,-2.621c1,-1.288 2.25,-2.892 4.062,-3.858c2.304,-1.225 5.063,-0.984 6.709,0.6c0.799,0.77 1.224,1.712 1.566,2.471c0.896,1.962 1.896,3.595 3.071,5.075c1.079,1.35 2.658,2.495 3.613,2.029c0.645,-0.309 1.074,-1.317 1.533,-2.388l0.358,-0.812c1.742,-3.805 5.259,-6.717 9.659,-7.992c4.408,-1.267 8.941,-0.7 12.445,1.588c0.5,0.325 0.988,0.683 1.467,1.041c1.029,0.763 1.996,1.483 3.004,1.725c2.121,0.538 4.342,-1.067 5.738,-2.7c0.85,-0.992 1.562,-2.087 2.279,-3.183c0.862,-1.317 1.754,-2.679 2.871,-3.917c2.062,-2.287 4.529,-3.291 6.779,-2.783c1.221,0.283 2.146,0.946 2.962,1.533l0.759,0.529c1.433,0.904 3.325,1.113 5.191,0.588c1.863,-0.538 3.359,-1.717 4.092,-3.25c0.454,-0.933 1.583,-1.313 2.496,-0.871c0.933,0.45 1.321,1.567 0.875,2.496c-1.2,2.492 -3.546,4.396 -6.438,5.221c-2.887,0.821 -5.887,0.441 -8.216,-1.025l-0.942,-0.65c-0.579,-0.421 -1.133,-0.813 -1.621,-0.925c-1.004,-0.254 -2.3,0.687 -3.162,1.646c-0.921,1.025 -1.696,2.204 -2.517,3.454c-0.804,1.229 -1.613,2.454 -2.562,3.566c-2.742,3.204 -6.275,4.65 -9.455,3.909c-1.75,-0.421 -3.137,-1.45 -4.358,-2.359c-0.425,-0.316 -0.85,-0.629 -1.283,-0.916c-2.596,-1.688 -6.009,-2.092 -9.359,-1.125c-3.358,0.97 -6.016,3.141 -7.304,5.954l-0.321,0.733c-0.641,1.5 -1.441,3.367 -3.345,4.283c-0.7,0.338 -1.409,0.488 -2.105,0.488Z" style="fill:#0b331f;fill-rule:nonzero;"></path>    <path d="M718.629,567.329c0,0 17.184,-17.591 5.896,-27.329c-14.3,4.217 -5.896,27.329 -5.896,27.329Z" style="fill:#0b331f;fill-rule:nonzero;"></path>    <path d="M718.629,567.329l5.896,-27.329c-14.3,4.217 -5.896,27.329 -5.896,27.329Z" style="fill:#0d4128;fill-rule:nonzero;"></path>    <path d="M906.921,562.175c-0,-0 17.183,-17.596 5.896,-27.333c-14.3,4.22 -5.896,27.333 -5.896,27.333Z" style="fill:#0b331f;fill-rule:nonzero;"></path>    <path d="M906.921,562.175l5.896,-27.333c-14.3,4.22 -5.896,27.333 -5.896,27.333Z" style="fill:#0d4128;fill-rule:nonzero;"></path>    <path d="M1108.67,563.075c-0,0 17.183,-17.596 5.895,-27.333c-14.3,4.216 -5.895,27.333 -5.895,27.333Z" style="fill:#0b331f;fill-rule:nonzero;"></path>    <path d="M1108.67,563.075l5.895,-27.333c-14.3,4.216 -5.895,27.333 -5.895,27.333Z" style="fill:#0d4128;fill-rule:nonzero;"></path>    <path d="M768.096,575.733c-0,0 17.183,-17.591 5.896,-27.329c-14.3,4.217 -5.896,27.329 -5.896,27.329Z" style="fill:#0b331f;fill-rule:nonzero;"></path>    <path d="M768.096,575.733l5.896,-27.329c-14.3,4.217 -5.896,27.329 -5.896,27.329Z" style="fill:#0d4128;fill-rule:nonzero;"></path>    <path d="M831.033,559.575c0,0 6.709,-23.658 -7.858,-26.833c-10.554,10.529 7.858,26.833 7.858,26.833Z" style="fill:#0b331f;fill-rule:nonzero;"></path>    <path d="M831.033,559.575l-7.858,-26.833c-10.554,10.529 7.858,26.833 7.858,26.833Z" style="fill:#0d4128;fill-rule:nonzero;"></path>    <path d="M1133.41,558.037c-0,0 6.708,-23.662 -7.859,-26.833c-10.55,10.529 7.859,26.833 7.859,26.833Z" style="fill:#0b331f;fill-rule:nonzero;"></path>    <path d="M1133.41,558.037l-7.859,-26.833c-10.55,10.529 7.859,26.833 7.859,26.833Z" style="fill:#0d4128;fill-rule:nonzero;"></path>    <path d="M809.567,573.954c-0,0 11.125,-21.933 -2.559,-27.846c-12.383,8.313 2.559,27.846 2.559,27.846Z" style="fill:#0b331f;fill-rule:nonzero;"></path>    <path d="M809.567,573.954l-2.559,-27.846c-12.383,8.313 2.559,27.846 2.559,27.846Z" style="fill:#0d4128;fill-rule:nonzero;"></path>    <path d="M1051.87,560.079c-0,0 11.125,-21.933 -2.563,-27.842c-12.379,8.309 2.563,27.842 2.563,27.842Z" style="fill:#0b331f;fill-rule:nonzero;"></path>    <path d="M1051.87,560.079l-2.563,-27.842c-12.379,8.309 2.563,27.842 2.563,27.842Z" style="fill:#0d4128;fill-rule:nonzero;"></path>    <path d="M971.471,562.429c-0,0 11.125,-21.933 -2.558,-27.842c-12.384,8.309 2.558,27.842 2.558,27.842Z" style="fill:#0b331f;fill-rule:nonzero;"></path>    <path d="M971.471,562.429l-2.558,-27.842c-12.384,8.309 2.558,27.842 2.558,27.842Z" style="fill:#0d4128;fill-rule:nonzero;"></path>    <path d="M889.5,601.479c-0,0 -15.637,-18.979 -26.538,-8.804c2.655,14.671 26.538,8.804 26.538,8.804Z" style="fill:#0b331f;fill-rule:nonzero;"></path>    <path d="M889.5,601.479l-26.538,-8.804c2.655,14.671 26.538,8.804 26.538,8.804Z" style="fill:#0d4128;fill-rule:nonzero;"></path>    <path d="M891.504,544.546c0,-0 -15.637,-18.979 -26.533,-8.804c2.65,14.67 26.533,8.804 26.533,8.804Z" style="fill:#0b331f;fill-rule:nonzero;"></path>    <path d="M891.504,544.546l-26.533,-8.804c2.65,14.67 26.533,8.804 26.533,8.804Z" style="fill:#0d4128;fill-rule:nonzero;"></path>    <path d="M837.612,554.729c0,0 15.642,-18.979 26.538,-8.804c-2.65,14.671 -26.538,8.804 -26.538,8.804Z" style="fill:#0b331f;fill-rule:nonzero;"></path>    <path d="M837.612,554.729l26.538,-8.804c-2.65,14.671 -26.538,8.804 -26.538,8.804Z" style="fill:#0d4128;fill-rule:nonzero;"></path>    <path d="M843.208,662.317c0,-0 5.625,-23.942 19.9,-19.642c4.113,14.329 -19.9,19.642 -19.9,19.642Z" style="fill:#0b331f;fill-rule:nonzero;"></path>    <path d="M843.208,662.317l19.9,-19.642c4.113,14.329 -19.9,19.642 -19.9,19.642Z" style="fill:#0d4128;fill-rule:nonzero;"></path>    <path d="M1000.77,617.812c0,0 5.625,-23.941 19.9,-19.637c4.113,14.329 -19.9,19.637 -19.9,19.637Z" style="fill:#0b331f;fill-rule:nonzero;"></path>    <path d="M1000.77,617.812l19.9,-19.637c4.113,14.329 -19.9,19.637 -19.9,19.637Z" style="fill:#0d4128;fill-rule:nonzero;"></path>    <path d="M731.583,517.937c0,0 18.984,15.63 8.817,26.534c-14.675,-2.646 -8.817,-26.534 -8.817,-26.534Z" style="fill:#0b331f;fill-rule:nonzero;"></path>    <path d="M731.583,517.937l8.817,26.534c-14.675,-2.646 -8.817,-26.534 -8.817,-26.534Z" style="fill:#0d4128;fill-rule:nonzero;"></path>    <path d="M941.862,502.817c0,-0 18.988,15.633 8.821,26.533c-14.675,-2.646 -8.821,-26.533 -8.821,-26.533Z" style="fill:#0b331f;fill-rule:nonzero;"></path>    <path d="M941.862,502.817l8.821,26.533c-14.675,-2.646 -8.821,-26.533 -8.821,-26.533Z" style="fill:#0d4128;fill-rule:nonzero;"></path>    <path d="M782.892,511.963c-0,-0 11.645,21.662 -1.896,27.895c-12.575,-8.008 1.896,-27.895 1.896,-27.895Z" style="fill:#0b331f;fill-rule:nonzero;"></path>    <path d="M782.892,511.963l-1.896,27.895c-12.575,-8.008 1.896,-27.895 1.896,-27.895Z" style="fill:#0d4128;fill-rule:nonzero;"></path>    <path d="M985.754,494.096c0,-0 11.646,21.662 -1.896,27.896c-12.575,-8.009 1.896,-27.896 1.896,-27.896Z" style="fill:#0b331f;fill-rule:nonzero;"></path>    <path d="M985.754,494.096l-1.896,27.896c-12.575,-8.009 1.896,-27.896 1.896,-27.896Z" style="fill:#0d4128;fill-rule:nonzero;"></path>    <path d="M817.163,496.792c-0,-0 18.72,15.954 8.366,26.683c-14.621,-2.896 -8.366,-26.683 -8.366,-26.683Z" style="fill:#0b331f;fill-rule:nonzero;"></path>    <path d="M817.163,496.792l8.366,26.683c-14.621,-2.896 -8.366,-26.683 -8.366,-26.683Z" style="fill:#0d4128;fill-rule:nonzero;"></path>    <path d="M1077.2,515.117c-0,-0 18.725,15.954 8.371,26.679c-14.625,-2.892 -8.371,-26.679 -8.371,-26.679Z" style="fill:#0b331f;fill-rule:nonzero;"></path>    <path d="M1077.2,515.117l8.371,26.679c-14.625,-2.896 -8.371,-26.679 -8.371,-26.679Z" style="fill:#0d4128;fill-rule:nonzero;"></path>    <path d="M893.404,489.825c0,0 -0.325,24.588 -15.192,23.471c-7.108,-13.104 15.192,-23.471 15.192,-23.471Z" style="fill:#0b331f;fill-rule:nonzero;"></path>    <path d="M893.404,489.825l-15.192,23.471c-7.108,-13.104 15.192,-23.471 15.192,-23.471Z" style="fill:#0d4128;fill-rule:nonzero;"></path>    <path d="M1037.74,489.825c-0,0 -0.325,24.588 -15.188,23.471c-7.112,-13.104 15.188,-23.471 15.188,-23.471Z" style="fill:#0b331f;fill-rule:nonzero;"></path>    <path d="M1037.74,489.825l-15.188,23.471c-7.112,-13.104 15.188,-23.471 15.188,-23.471Z" style="fill:#0d4128;fill-rule:nonzero;"></path>    <path d="M925.408,433.983c0,0 136.192,53.4 194.03,151.721c57.837,98.321 96.92,173.508 96.92,173.508c0,0 16.563,25.184 -29.416,54.209c-45.98,29.025 -46.721,38.342 -40.784,51.279c5.934,12.937 19.942,12.983 61.067,14.787c41.121,1.805 251.575,5.905 251.575,5.905l172.775,-264.655c0,0 7.912,-20.541 -6.196,-30.354c-14.108,-9.816 -56.542,14.659 -56.542,14.659c0,-0 -31.541,16.35 -55.108,-27.75c-23.566,-44.096 -74.966,-106.538 -136.229,-140.863l-452.092,-2.446Z" style="fill:#55ba63;fill-rule:nonzero;"></path>    <path d="M1146.16,864.7c5.934,12.937 19.942,12.983 61.067,14.787c41.125,1.805 251.575,5.905 251.575,5.905l151.692,-232.354c-20.65,9.087 -39.68,20.958 -55.559,37.158c-15.879,16.204 -27.708,35.85 -41.446,53.904c-24.625,32.367 -56.004,60.017 -92.691,77.563c-36.688,17.545 -78.821,24.608 -118.758,16.92c-22.121,-4.258 -43.213,-12.871 -65.276,-17.45c-18.866,-3.916 -38.095,-4.7 -57.179,-2.97c-38.641,25.333 -39.025,34.333 -33.425,46.537Z" style="fill:#cca78a;fill-rule:nonzero;"></path>    <path d="M1146.16,864.7c5.934,12.937 19.942,12.983 61.067,14.787c41.125,1.805 251.575,5.905 251.575,5.905l141.938,-217.421c-6.492,4.729 -12.717,9.858 -18.588,15.508c-19.025,18.296 -33.383,40.788 -47.833,62.875c-28.029,42.859 -59.959,87.4 -107.738,105.838c-25.641,9.891 -53.746,11.291 -81.217,10.629c-33.262,-0.804 -66.45,-4.463 -99.087,-10.921c-26.775,-5.3 -53.663,-12.521 -80.908,-10.796c-5.363,0.338 -11.209,1.113 -17.063,2.367c-6.55,8.417 -5.321,14.312 -2.146,21.229Z" style="fill:#f7d8b0;fill-rule:nonzero;"></path>    <path d="M1329.42,510.787c-13.659,9.905 -23.959,25.617 -23.842,42.484c0.179,25.342 22.504,44.783 44.854,56.742c22.342,11.954 47.629,20.92 63.442,40.72c11.246,14.088 16.271,32.034 24.962,47.829c8.688,15.792 23.734,30.621 41.738,29.755c19.104,-0.925 32.441,-18.405 44.521,-33.234c13.62,-16.716 29.029,-31.975 45.879,-45.425c15.287,-12.2 31.971,-23.125 44.075,-38.483c4.708,-5.971 8.604,-12.862 11.171,-20.104l-0.838,-0.688c-14.108,-9.816 -56.542,14.659 -56.542,14.659c0,-0 -31.541,16.35 -55.108,-27.75c-14.479,-27.092 -39.492,-61.088 -70.808,-91.255c-22.484,0.334 -44.917,2.709 -66.621,6.838c-16.571,3.15 -33.229,8.013 -46.883,17.912Z" style="fill:#7dc572;fill-rule:nonzero;"></path>    <rect x="738.487" y="726.258" width="9.812" height="72.767" style="fill:#0a050b;fill-rule:nonzero;"></rect>    <path d="M841.417,642.158l-0,7.975l-35.78,107.021l-160.266,0l-0,-5.633l196.046,-109.363Z" style="fill:#d2d1c7;fill-rule:nonzero;"></path>    <path d="M841.417,642.158l-152.43,0l-43.616,109.363l159.141,-0l36.905,-109.363Z" style="fill:#fff9e6;fill-rule:nonzero;"></path>    <path d="M827.329,652.504l-133.462,0l-34.409,88.671l137.321,-0l30.55,-88.671Z" style="fill:#048f9c;fill-rule:nonzero;"></path>    <path d="M659.458,741.175l34.409,-88.671l2.025,0c7.016,16.484 32.554,61.254 105.812,74.379l-4.925,14.292l-137.321,-0Z" style="fill:#00a0a8;fill-rule:nonzero;"></path>    <path d="M759.413,748.283l35.866,-101.216l-4.175,-1.479l-35.871,101.216l4.18,1.479Z" style="fill:#fff9e6;fill-rule:nonzero;"></path>    <path d="M727.55,748.283l35.867,-101.216l-4.175,-1.479l-35.871,101.216l4.179,1.479Z" style="fill:#fff9e6;fill-rule:nonzero;"></path>    <path d="M695.687,748.283l35.863,-101.216l-4.175,-1.479l-35.867,101.216l4.179,1.479Z" style="fill:#fff9e6;fill-rule:nonzero;"></path>    <rect x="674.367" y="694.621" width="141.967" height="4.437" style="fill:#fff9e6;fill-rule:nonzero;"></rect>    <rect x="826.129" y="798.508" width="9.808" height="72.758" style="fill:#0a050b;fill-rule:nonzero;"></rect>    <path d="M929.058,714.404l0,7.975l-35.783,107.021l-160.267,-0l0,-5.633l196.05,-109.363Z" style="fill:#d2d1c7;fill-rule:nonzero;"></path>    <path d="M929.058,714.404l-152.429,0l-43.621,109.363l159.146,-0l36.904,-109.363Z" style="fill:#fff9e6;fill-rule:nonzero;"></path>    <path d="M914.967,724.75l-133.459,0l-34.412,88.671l137.321,-0l30.55,-88.671Z" style="fill:#048f9c;fill-rule:nonzero;"></path>    <path d="M747.096,813.421l34.412,-88.671l2.021,0c7.017,16.483 32.554,61.254 105.813,74.379l-4.925,14.292l-137.321,-0Z" style="fill:#00a0a8;fill-rule:nonzero;"></path>    <path d="M847.05,820.533l35.867,-101.216l-4.175,-1.484l-35.867,101.217l4.175,1.483Z" style="fill:#fff9e6;fill-rule:nonzero;"></path>    <path d="M815.188,820.533l35.866,-101.216l-4.175,-1.484l-35.866,101.217l4.175,1.483Z" style="fill:#fff9e6;fill-rule:nonzero;"></path>    <path d="M783.325,820.533l35.862,-101.216l-4.175,-1.484l-35.862,101.217l4.175,1.483Z" style="fill:#fff9e6;fill-rule:nonzero;"></path>    <rect x="762.004" y="766.867" width="141.971" height="4.438" style="fill:#fff9e6;fill-rule:nonzero;"></rect>    <path d="M1229.09,431.787l-151.841,-171.541l-151.838,173.862c0,0 152.534,24.109 303.679,-2.321Z" style="fill:#7bb8a9;fill-rule:nonzero;"></path>    <path d="M1077.25,335.404l-4.975,-33.15l-30.463,19.534l4.479,-19.534l-5.037,-0.791l35.996,-41.217l45.725,51.65l-30.996,-9.642l-14.729,33.15Z" style="fill:#e6edeb;fill-rule:nonzero;"></path>    <path d="M962.046,438.558c-22.479,-2.25 -35.946,-4.341 -36.613,-4.445c-0.016,-0.005 -0.025,-0.005 -0.025,-0.005l151.838,-173.862l-35.996,41.217l5.037,0.791l-4.479,19.534l30.463,-19.534l1.508,10.071l-111.733,126.233Z" style="fill:#5fa797;fill-rule:nonzero;"></path>    <path d="M1041.81,321.788l4.479,-19.534l-5.037,-0.791l35.996,-41.217l-0,48.167l-3.467,3.912l-1.508,-10.071l-30.463,19.534Z" style="fill:#b5d1cb;fill-rule:nonzero;"></path>    <path d="M958.138,442.975l213.833,-241.583l213.837,244.85c0,-0 -214.816,33.95 -427.67,-3.267Z" style="fill:#7bb8a9;fill-rule:nonzero;"></path>    <path d="M1171.97,307.237l7.012,-46.683l42.9,27.513l-6.312,-27.513l7.091,-1.116l-50.691,-58.046l-64.388,72.741l43.646,-13.579l20.742,46.683Z" style="fill:#e6edeb;fill-rule:nonzero;"></path>    <path d="M1385.8,446.242l0.012,-0l-0.012,-0Z" style="fill:#2fb159;fill-rule:nonzero;"></path>    <path d="M1175.33,460.4l-3.358,0l-0,-153.163l7.012,-46.683l42.9,27.513l-6.312,-27.513l7.091,-1.116l-50.691,-58.046l213.837,244.85l-0.012,-0c-1.238,0.195 -90.458,14.162 -210.467,14.158Z" style="fill:#5fa797;fill-rule:nonzero;"></path>    <path d="M1171.97,307.237l-0,-105.845l50.691,58.046l-7.091,1.116l6.312,27.513l-42.9,-27.513l-7.012,46.683Z" style="fill:#b5d1cb;fill-rule:nonzero;"></path>    <path d="M1349.31,481.446l-16.971,-0.013l0.042,-54.308l16.975,0.013l-0.046,54.308Z" style="fill:#9d5b44;fill-rule:nonzero;"></path>    <path d="M1341.15,340.392c0,-0 -62.9,110.091 -0.091,110.141c61.833,0.05 0.091,-110.141 0.091,-110.141Z" style="fill:#008c51;fill-rule:nonzero;"></path>    <path d="M1341.15,340.392l-0.091,110.141c61.833,0.05 0.091,-110.141 0.091,-110.141Z" style="fill:#065b3a;fill-rule:nonzero;"></path>    <path d="M1171.46,482.737l-12.741,-0.008l0.033,-40.783l12.742,0.012l-0.034,40.779Z" style="fill:#9d5b44;fill-rule:nonzero;"></path>    <path d="M1165.34,376.821c0,-0 -47.229,82.667 -0.066,82.704c46.429,0.038 0.066,-82.704 0.066,-82.704Z" style="fill:#008c51;fill-rule:nonzero;"></path>    <path d="M1165.34,376.821l-0.066,82.704c46.429,0.038 0.066,-82.704 0.066,-82.704Z" style="fill:#065b3a;fill-rule:nonzero;"></path>    <path d="M1214.65,525.771l-16.975,-0.013l0.041,-54.312l16.971,0.017l-0.037,54.308Z" style="fill:#9d5b44;fill-rule:nonzero;"></path>    <path d="M1206.49,384.717c-0,-0 -62.896,110.091 -0.088,110.141c61.829,0.046 0.088,-110.141 0.088,-110.141Z" style="fill:#008c51;fill-rule:nonzero;"></path>    <path d="M1206.49,384.717l-0.088,110.141c61.829,0.046 0.088,-110.141 0.088,-110.141Z" style="fill:#065b3a;fill-rule:nonzero;"></path>    <path d="M1130.86,528.804c-4.779,-8.842 0.654,-20.033 8.225,-26.654c9.334,-8.171 22.505,-12.408 34.542,-9.387c12.037,3.016 22.117,14.041 22.367,26.449c6.858,-3.72 14.25,-7.037 22.05,-7.054c7.795,-0.016 16.071,4.046 18.841,11.338c11.921,-9.246 31.592,-5.629 39.446,7.254l-144.662,0l-0.809,-1.946Z" style="fill:#065b3a;fill-rule:nonzero;"></path>    <path d="M1412.67,550.058l-16.821,-2.245l7.192,-53.834l16.824,2.25l-7.195,53.829Z" style="fill:#9d5b44;fill-rule:nonzero;"></path>    <path d="M1423.16,409.158c0,0 -76.85,100.85 -14.591,109.171c61.287,8.192 14.591,-109.171 14.591,-109.171Z" style="fill:#008c51;fill-rule:nonzero;"></path>    <path d="M1423.16,409.158l-14.591,109.171c61.287,8.192 14.591,-109.171 14.591,-109.171Z" style="fill:#065b3a;fill-rule:nonzero;"></path>    <path d="M1351.94,555.758c2.367,-2.658 6.221,-3.891 9.692,-3.112c3.471,0.783 6.425,3.55 7.421,6.967c3.171,-4.817 10.367,-3.934 15.942,-2.48c0.696,-6.125 2.546,-12.412 6.887,-16.783c6.621,-6.671 17.246,-7.242 26.496,-5.592c5.829,1.042 11.658,2.859 16.342,6.475c4.683,3.617 8.075,9.279 7.812,15.188c3.067,-3.263 8.096,-4.521 12.342,-3.088c4.246,1.434 7.483,5.484 7.942,9.942c4.429,-1.904 9.812,-1.371 13.775,1.363c3.966,2.733 6.379,7.579 6.17,12.391l-133.771,-17.433l2.95,-3.838Z" style="fill:#065b3a;fill-rule:nonzero;"></path>    <path d="M1347.55,811.046l-20.708,-0.979l3.129,-66.271l20.708,0.979l-3.129,66.271Z" style="fill:#9d5b44;fill-rule:nonzero;"></path>    <path d="M1345.59,638.458c-0,0 -82.984,130.78 -6.342,134.396c75.446,3.563 6.342,-134.396 6.342,-134.396Z" style="fill:#008c51;fill-rule:nonzero;"></path>    <path d="M1345.59,638.458l-6.342,134.396c75.446,3.563 6.342,-134.396 6.342,-134.396Z" style="fill:#065b3a;fill-rule:nonzero;"></path>    <path d="M1421.61,759.133l-20.646,-1.921l6.151,-66.058l20.641,1.921l-6.146,66.058Z" style="fill:#9d5b44;fill-rule:nonzero;"></path>    <path d="M1427.52,586.637c-0,0 -88.871,126.855 -12.475,133.967c75.208,7 12.475,-133.967 12.475,-133.967Z" style="fill:#008c51;fill-rule:nonzero;"></path>    <path d="M1427.52,586.637l-12.475,133.967c75.208,7 12.475,-133.967 12.475,-133.967Z" style="fill:#065b3a;fill-rule:nonzero;"></path>    <path d="M1413.62,844.075l-0.671,0c-3.421,0.008 -6.221,-2.783 -6.229,-6.204l-0.367,-179.467c-0.008,-3.421 2.783,-6.225 6.204,-6.229l0.667,-0.004c3.421,-0.004 6.225,2.787 6.229,6.208l0.371,179.467c0.004,3.417 -2.788,6.221 -6.204,6.229Z" style="fill:#ebeceb;fill-rule:nonzero;"></path>    <path d="M1337.11,666.996c0,-0 45.496,10.871 75.084,-11.042c-34.642,-12.462 -75.084,11.042 -75.084,11.042Z" style="fill:#ebeceb;fill-rule:nonzero;"></path>    <path d="M1412.19,655.954l-75.084,11.042c0,-0 45.496,10.871 75.084,-11.042Z" style="fill:#00afaf;fill-rule:nonzero;"></path>    <path d="M1463.64,711.737c-0,0 -16.675,-43.699 -51.45,-55.783c9.237,35.638 51.45,55.783 51.45,55.783Z" style="fill:#ebeceb;fill-rule:nonzero;"></path>    <path d="M1412.19,655.954l51.45,55.783c-0,0 -16.675,-43.699 -51.45,-55.783Z" style="fill:#00afaf;fill-rule:nonzero;"></path>    <path d="M1443.08,586.637c0,0 -33.55,32.601 -30.891,69.317c29.079,-22.575 30.891,-69.317 30.891,-69.317Z" style="fill:#ebeceb;fill-rule:nonzero;"></path>    <path d="M1412.19,655.954l30.891,-69.317c0,0 -33.55,32.601 -30.891,69.317Z" style="fill:#00afaf;fill-rule:nonzero;"></path>    <path d="M1429.78,658.062c0.017,9.317 -7.521,16.888 -16.842,16.909c-9.32,0.021 -16.887,-7.521 -16.908,-16.842c-0.017,-9.317 7.521,-16.891 16.842,-16.908c9.316,-0.017 16.891,7.521 16.908,16.841Z" style="fill:#ebeceb;fill-rule:nonzero;"></path>    <path d="M1424.11,658.075c0.013,6.188 -4.995,11.217 -11.183,11.229c-6.192,0.013 -11.221,-4.996 -11.233,-11.183c-0.013,-6.192 4.991,-11.221 11.187,-11.234c6.188,-0.012 11.217,4.996 11.229,11.188Z" style="fill:#00afaf;fill-rule:nonzero;"></path>    <path d="M1261.83,770.5l-0.575,0.004c-2.946,0.004 -5.358,-2.4 -5.366,-5.341l-0.317,-154.546c-0.004,-2.942 2.4,-5.359 5.342,-5.363l0.579,0c2.941,-0.008 5.358,2.396 5.362,5.342l0.317,154.541c0.004,2.946 -2.396,5.359 -5.342,5.363Z" style="fill:#ebeceb;fill-rule:nonzero;"></path>    <path d="M1195.95,618.017c0,-0 39.179,9.358 64.658,-9.509c-29.829,-10.733 -64.658,9.509 -64.658,9.509Z" style="fill:#ebeceb;fill-rule:nonzero;"></path>    <path d="M1260.61,608.508l-64.658,9.509c0,-0 39.179,9.358 64.658,-9.509Z" style="fill:#00afaf;fill-rule:nonzero;"></path>    <path d="M1304.91,656.546c0,-0 -14.362,-37.633 -44.304,-48.038c7.95,30.688 44.304,48.038 44.304,48.038Z" style="fill:#ebeceb;fill-rule:nonzero;"></path>    <path d="M1260.61,608.508l44.304,48.038c0,-0 -14.362,-37.633 -44.304,-48.038Z" style="fill:#00afaf;fill-rule:nonzero;"></path>    <path d="M1287.21,548.817c0,-0 -28.887,28.071 -26.6,59.691c25.042,-19.441 26.6,-59.691 26.6,-59.691Z" style="fill:#ebeceb;fill-rule:nonzero;"></path>    <path d="M1260.61,608.508l26.6,-59.691c0,-0 -28.887,28.071 -26.6,59.691Z" style="fill:#00afaf;fill-rule:nonzero;"></path>    <path d="M1275.75,610.325c0.017,8.021 -6.479,14.542 -14.504,14.558c-8.025,0.017 -14.542,-6.475 -14.559,-14.5c-0.02,-8.029 6.476,-14.545 14.5,-14.562c8.025,-0.017 14.546,6.475 14.563,14.504Z" style="fill:#ebeceb;fill-rule:nonzero;"></path>    <path d="M1270.87,610.333c0.008,5.33 -4.3,9.659 -9.634,9.671c-5.329,0.013 -9.662,-4.3 -9.67,-9.633c-0.013,-5.329 4.3,-9.659 9.633,-9.671c5.329,-0.008 9.658,4.304 9.671,9.633Z" style="fill:#00afaf;fill-rule:nonzero;"></path>    <path d="M587.133,722.625c1.338,-6.521 2.996,-12.996 5.425,-19.192c6.767,-17.266 19.625,-32.07 35.775,-41.187c-1.025,6.871 -2.045,13.741 -3.07,20.612c-0.746,5.009 -1.538,10.15 -4.046,14.55c-2.509,4.404 -7.159,7.963 -12.217,7.667c2.713,4.125 7.283,6.975 12.183,7.588c-9.287,19.362 -9.358,41.77 -15.358,62.387c-5.604,19.258 -17.817,-6.504 -19.546,-13.767c-3,-12.604 -1.725,-26.104 0.854,-38.658Z" style="fill:#008c51;fill-rule:nonzero;"></path>    <path d="M567.212,725.821c-5.054,-4.333 -10.333,-8.433 -16.045,-11.842c-15.929,-9.496 -35.167,-13.312 -53.509,-10.621c5.017,4.8 10.038,9.604 15.055,14.405c3.662,3.504 7.433,7.079 12.112,9.02c4.683,1.942 10.537,1.9 14.354,-1.433c0.388,4.925 -1.483,9.979 -4.983,13.467c19.208,9.612 33,27.27 50.379,39.887c16.229,11.784 10.087,-16.058 7.004,-22.858c-5.354,-11.8 -14.633,-21.683 -24.367,-30.025Z" style="fill:#46a052;fill-rule:nonzero;"></path>    <path d="M534.367,768.908c-6.429,1.725 -12.792,3.771 -18.83,6.567c-16.829,7.792 -30.833,21.517 -38.962,38.187c6.796,-1.433 13.592,-2.87 20.388,-4.304c4.954,-1.046 10.041,-2.146 14.283,-4.916c4.242,-2.767 7.512,-7.625 6.917,-12.655c4.279,2.459 7.4,6.855 8.308,11.705c18.762,-10.43 41.129,-11.85 61.354,-19.079c18.883,-6.75 -7.567,-17.392 -14.921,-18.684c-12.762,-2.237 -26.158,-0.154 -38.537,3.179Z" style="fill:#46a052;fill-rule:nonzero;"></path>    <path d="M548.587,745.975c-6.533,-1.279 -13.141,-2.25 -19.795,-2.4c-18.538,-0.425 -37.163,5.725 -51.8,17.104c6.729,1.708 13.462,3.417 20.195,5.121c4.909,1.246 9.959,2.504 14.988,1.887c5.025,-0.616 10.104,-3.533 11.783,-8.312c2.763,4.092 3.625,9.413 2.3,14.167c21.446,-1.092 42.146,7.491 63.484,9.912c19.925,2.263 0.875,-18.946 -5.163,-23.346c-10.466,-7.633 -23.408,-11.666 -35.992,-14.133Z" style="fill:#55ba63;fill-rule:nonzero;"></path>    <path d="M627.296,729.496c5.546,-3.683 11.283,-7.109 17.371,-9.796c16.966,-7.483 36.525,-8.929 54.408,-4.017c-5.571,4.15 -11.138,8.304 -16.7,12.459c-4.063,3.029 -8.246,6.12 -13.125,7.475c-4.883,1.358 -10.688,0.604 -14.071,-3.167c-0.983,4.838 0.254,10.083 3.3,13.971c-20.233,7.196 -36.075,23.041 -54.858,33.446c-17.546,9.716 -8.059,-17.167 -4.167,-23.538c6.75,-11.062 17.167,-19.741 27.842,-26.833Z" style="fill:#46a052;fill-rule:nonzero;"></path>    <path d="M654.65,776.263c6.167,2.5 12.233,5.304 17.887,8.816c15.75,9.783 27.98,25.117 34.017,42.65c-6.571,-2.25 -13.141,-4.504 -19.712,-6.754c-4.792,-1.646 -9.704,-3.354 -13.58,-6.621c-3.87,-3.262 -6.525,-8.483 -5.32,-13.404c-4.55,1.917 -8.184,5.9 -9.671,10.604c-17.363,-12.641 -39.383,-16.775 -58.571,-26.416c-17.921,-9.005 9.629,-16.338 17.083,-16.721c12.942,-0.667 25.984,3.033 37.867,7.846Z" style="fill:#46a052;fill-rule:nonzero;"></path>    <path d="M643.325,751.771c6.637,-0.475 13.321,-0.629 19.942,0.029c18.454,1.842 36.187,10.212 49.329,23.292c-6.888,0.875 -13.779,1.75 -20.667,2.625c-5.029,0.637 -10.191,1.266 -15.104,0.041c-4.917,-1.225 -9.6,-4.737 -10.687,-9.687c-3.238,3.725 -4.742,8.904 -4.009,13.783c-21.154,-3.696 -42.746,2.296 -64.217,2.1c-20.054,-0.183 1.442,-18.908 7.967,-22.541c11.321,-6.301 24.658,-8.726 37.446,-9.642Z" style="fill:#55ba63;fill-rule:nonzero;"></path>    <path d="M891.796,855.3c-1.063,-6.004 -1.833,-12.079 -1.858,-18.175c-0.067,-16.996 5.887,-33.95 16.566,-47.171c1.45,6.2 2.896,12.396 4.346,18.596c1.054,4.521 2.117,9.167 1.467,13.763c-0.65,4.595 -3.413,9.199 -7.817,10.654c3.7,2.6 8.558,3.483 12.942,2.354c-1.371,19.629 6.133,38.741 7.987,58.333c1.729,18.296 -17.375,0.475 -21.304,-5.129c-6.813,-9.725 -10.283,-21.654 -12.329,-33.225Z" style="fill:#008c51;fill-rule:nonzero;"></path>    <path d="M875.908,864.754c-5.771,-1.983 -11.65,-3.692 -17.67,-4.667c-16.775,-2.712 -34.451,0.534 -49.171,9.021c5.896,2.4 11.796,4.792 17.691,7.188c4.3,1.746 8.725,3.521 13.367,3.592c4.642,0.075 9.617,-1.938 11.742,-6.063c1.991,4.058 2.108,8.996 0.308,13.15c19.604,1.7 37.317,12.087 56.383,16.967c17.804,4.558 3.171,-17.088 -1.754,-21.838c-8.546,-8.246 -19.787,-13.529 -30.896,-17.35Z" style="fill:#46a052;fill-rule:nonzero;"></path>    <path d="M862.475,912.55c-4.892,3.646 -9.621,7.533 -13.821,11.958c-11.704,12.317 -19,28.742 -20.291,45.688c5.304,-3.521 10.608,-7.038 15.912,-10.554c3.871,-2.563 7.829,-5.217 10.508,-9.009c2.68,-3.791 3.825,-9.033 1.617,-13.116c4.479,0.645 8.617,3.337 11.033,7.166c12.463,-15.225 31.034,-23.991 45.821,-36.975c13.804,-12.133 -12.321,-12.262 -19.021,-10.875c-11.629,2.4 -22.337,8.7 -31.758,15.717Z" style="fill:#46a052;fill-rule:nonzero;"></path>    <path d="M866.85,888.212c-6,1.113 -11.958,2.526 -17.675,4.642c-15.937,5.9 -29.725,17.429 -38.354,32.067c6.312,-0.817 12.625,-1.638 18.937,-2.459c4.604,-0.595 9.325,-1.233 13.4,-3.454c4.075,-2.225 7.417,-6.421 7.234,-11.062c3.733,2.554 6.266,6.796 6.741,11.296c17.905,-8.175 38.438,-7.859 57.429,-12.996c17.742,-4.804 -5.654,-16.438 -12.279,-18.146c-11.495,-2.967 -23.883,-2.033 -35.433,0.112Z" style="fill:#55ba63;fill-rule:nonzero;"></path>    <path d="M928.333,847.592c3.479,-5.009 7.209,-9.863 11.492,-14.209c11.921,-12.108 28.096,-19.941 44.987,-21.8c-3.337,5.421 -6.679,10.838 -10.016,16.259c-2.438,3.95 -4.954,7.996 -8.654,10.8c-3.704,2.8 -8.905,4.121 -13.059,2.05c0.796,4.454 3.621,8.504 7.525,10.787c-14.8,12.963 -22.941,31.817 -35.433,47.021c-11.663,14.204 -12.662,-11.9 -11.5,-18.646c2.017,-11.7 7.958,-22.612 14.658,-32.262Z" style="fill:#46a052;fill-rule:nonzero;"></path>    <path d="M967.429,878.196c6.096,0.046 12.213,0.387 18.217,1.471c16.721,3.012 32.317,11.945 43.379,24.846c-6.358,0.299 -12.713,0.599 -19.071,0.9c-4.637,0.22 -9.4,0.42 -13.804,-1.055c-4.4,-1.475 -8.425,-5.02 -9.058,-9.621c-3.23,3.171 -4.979,7.788 -4.659,12.3c-19.058,-4.904 -39.216,-0.991 -58.82,-2.72c-18.305,-1.621 2.687,-17.171 8.912,-20.021c10.796,-4.934 23.158,-6.188 34.904,-6.1Z" style="fill:#46a052;fill-rule:nonzero;"></path>    <path d="M949.512,861.154c5.492,-2.646 11.134,-5.033 16.996,-6.708c16.342,-4.663 34.275,-3.521 49.892,3.183c-5.575,3.071 -11.15,6.142 -16.725,9.213c-4.067,2.241 -8.25,4.521 -12.854,5.137c-4.6,0.621 -9.775,-0.792 -12.371,-4.641c-1.5,4.27 -1.033,9.183 1.242,13.095c-19.271,3.996 -35.642,16.392 -53.996,23.475c-17.15,6.617 -5.163,-16.596 -0.829,-21.891c7.516,-9.192 18.058,-15.763 28.645,-20.863Z" style="fill:#55ba63;fill-rule:nonzero;"></path>    <path d="M874.463,941.375l-16.971,-0.017l0.041,-54.308l16.971,0.012l-0.041,54.313Z" style="fill:#9d5b44;fill-rule:nonzero;"></path>    <path d="M866.308,800.317c0,-0 -62.9,110.091 -0.087,110.141c61.829,0.05 0.087,-110.141 0.087,-110.141Z" style="fill:#008c51;fill-rule:nonzero;"></path>    <path d="M866.308,800.317l-0.087,110.141c61.829,0.05 0.087,-110.141 0.087,-110.141Z" style="fill:#065b3a;fill-rule:nonzero;"></path>    <g>      <clipPath id="_clip1">        <path d="M1096.11,584.921c0,-0 -182.412,-244.738 -398.299,-61.779l-106.359,195.979c0,-0 -37.233,46.729 8.633,71.621c45.867,24.891 246.85,133.962 246.85,133.962c0,0 38.388,32.708 69.305,-28.241l179.87,-311.542Z"></path>      </clipPath>      <g clip-path="url(#_clip1)">        <path d="M666.438,838.188l-16.967,-0.013l0.041,-54.312l16.971,0.012l-0.045,54.313Z" style="fill:#9d5b44;fill-rule:nonzero;"></path>        <path d="M658.283,697.133c0,0 -62.895,110.088 -0.087,110.142c61.833,0.046 0.087,-110.142 0.087,-110.142Z" style="fill:#008c51;fill-rule:nonzero;"></path>        <path d="M658.283,697.133l-0.087,110.142c61.833,0.046 0.087,-110.142 0.087,-110.142Z" style="fill:#065b3a;fill-rule:nonzero;"></path>        <path d="M701.088,868.562l-16.971,-0.012l0.046,-54.313l16.97,0.013l-0.045,54.312Z" style="fill:#9d5b44;fill-rule:nonzero;"></path>        <path d="M692.933,727.504c0,0 -62.9,110.092 -0.087,110.146c61.833,0.046 0.087,-110.146 0.087,-110.146Z" style="fill:#008c51;fill-rule:nonzero;"></path>        <path d="M692.933,727.504l-0.087,110.146c61.833,0.046 0.087,-110.146 0.087,-110.146Z" style="fill:#065b3a;fill-rule:nonzero;"></path>        <path d="M753.871,881.438l-11.204,-0.009l0.029,-35.846l11.204,0.009l-0.029,35.846Z" style="fill:#9d5b44;fill-rule:nonzero;"></path>        <path d="M748.487,788.337c0,0 -41.516,72.663 -0.058,72.696c40.809,0.034 0.058,-72.696 0.058,-72.696Z" style="fill:#008c51;fill-rule:nonzero;"></path>        <path d="M748.487,788.337l-0.058,72.696c40.809,0.034 0.058,-72.696 0.058,-72.696Z" style="fill:#065b3a;fill-rule:nonzero;"></path>        <path d="M946.242,733.292c-3.363,-5.5 -6.471,-11.179 -8.85,-17.171c-6.625,-16.696 -7.313,-35.684 -1.905,-52.813c3.817,5.538 7.634,11.079 11.455,16.621c2.783,4.042 5.621,8.2 6.754,12.975c1.137,4.775 0.196,10.371 -3.579,13.509c4.65,1.129 9.771,0.12 13.641,-2.684c6.229,19.846 20.992,35.758 30.38,54.321c8.766,17.337 -16.913,7.175 -22.942,3.175c-10.459,-6.942 -18.479,-17.338 -24.954,-27.933Z" style="fill:#065b3a;fill-rule:nonzero;"></path>        <path d="M934.25,748.725c-6.442,0.275 -12.888,0.863 -19.187,2.229c-17.555,3.809 -33.696,13.825 -44.905,27.863c6.73,0.083 13.455,0.162 20.184,0.241c4.904,0.059 9.946,0.096 14.541,-1.625c4.596,-1.721 8.717,-5.621 9.213,-10.504c3.529,3.229 5.546,8.046 5.379,12.825c19.95,-5.892 41.387,-2.508 62.033,-5.067c19.279,-2.391 -3.475,-18.041 -10.154,-20.816c-11.591,-4.813 -24.696,-5.675 -37.104,-5.146Z" style="fill:#065b3a;fill-rule:nonzero;"></path>        <path d="M939.488,800.95c-3.409,5.471 -6.563,11.125 -8.988,17.1c-6.762,16.642 -7.6,35.621 -2.333,52.792c3.862,-5.509 7.725,-11.017 11.587,-16.525c2.817,-4.021 5.692,-8.159 6.863,-12.921c1.17,-4.767 0.275,-10.371 -3.471,-13.533c4.654,-1.096 9.771,-0.046 13.621,2.791c6.391,-19.796 21.279,-35.587 30.816,-54.075c8.904,-17.267 -16.854,-7.308 -22.912,-3.358c-10.517,6.85 -18.621,17.183 -25.183,27.729Z" style="fill:#065b3a;fill-rule:nonzero;"></path>        <path d="M934.392,775.308c-5.471,3.413 -10.788,7.1 -15.6,11.392c-13.405,11.958 -22.525,28.625 -25.363,46.362c5.896,-3.245 11.788,-6.487 17.684,-9.729c4.3,-2.366 8.704,-4.816 11.858,-8.575c3.15,-3.762 4.817,-9.183 2.846,-13.679c4.662,1.075 8.791,4.267 10.996,8.513c14.462,-14.954 34.787,-22.567 51.495,-34.959c15.604,-11.575 -11.908,-13.991 -19.087,-13.116c-12.458,1.52 -24.288,7.225 -34.829,13.791Z" style="fill:#065b3a;fill-rule:nonzero;"></path>        <path d="M979.217,711.6c1.491,-6.271 3.287,-12.492 5.82,-18.421c7.063,-16.517 19.955,-30.471 35.859,-38.817c-1.192,6.621 -2.388,13.242 -3.584,19.863c-0.87,4.829 -1.787,9.787 -4.345,13.971c-2.559,4.187 -7.171,7.496 -12.059,7.058c2.505,4.075 6.846,6.971 11.575,7.708c-9.566,18.475 -10.3,40.171 -16.72,59.955c-5.996,18.479 -17.055,-6.825 -18.517,-13.913c-2.529,-12.287 -0.896,-25.321 1.971,-37.404Z" style="fill:#065b3a;fill-rule:nonzero;"></path>        <path d="M1029.5,726.625c6.021,-2.308 12.167,-4.333 18.496,-5.587c17.617,-3.488 36.413,-0.721 52.275,7.704c-6.138,2.75 -12.283,5.5 -18.417,8.25c-4.483,2.004 -9.087,4.041 -13.991,4.291c-4.9,0.25 -10.23,-1.691 -12.629,-5.97c-1.955,4.362 -1.892,9.583 0.166,13.904c-20.65,2.525 -38.975,14.158 -58.933,20.025c-18.638,5.475 -3.988,-17.938 1.037,-23.138c8.721,-9.029 20.4,-15.029 31.996,-19.479Z" style="fill:#065b3a;fill-rule:nonzero;"></path>        <path d="M1005.3,716.771c4.383,-4.725 9.012,-9.25 14.137,-13.163c14.275,-10.9 32.371,-16.695 50.321,-16.129c-4.3,5.175 -8.6,10.35 -12.896,15.525c-3.137,3.771 -6.379,7.634 -10.666,10.017c-4.292,2.383 -9.929,2.991 -13.971,0.208c0.171,4.779 2.525,9.438 6.275,12.409c-17.417,11.366 -28.742,29.887 -44.071,43.945c-14.321,13.134 -11.483,-14.341 -9.267,-21.225c3.85,-11.945 11.688,-22.483 20.138,-31.587Z" style="fill:#065b3a;fill-rule:nonzero;"></path>      </g>    </g>    <path d="M937.054,282.733c0,43.034 -34.883,77.913 -77.908,77.913c-43.029,-0 -77.909,-34.879 -77.909,-77.913c0,-43.025 34.88,-77.908 77.909,-77.908c43.025,-0 77.908,34.883 77.908,77.908Z" style="fill:#fec038;fill-rule:nonzero;"></path>    <path d="M1593.38,1570.65l0.083,-0.1c0.388,-0.412 1.038,-0.433 1.45,-0.042l115.096,108.729c0.379,0.359 0.429,0.934 0.129,1.351l-7.1,9.749c-0.308,0.417 -0.875,0.546 -1.329,0.292l-138.316,-76.842c-0.496,-0.279 -0.676,-0.899 -0.4,-1.391c0.283,-0.492 0.9,-0.675 1.395,-0.4l137.525,76.404l6.034,-8.288l-114.442,-108.116c-0.379,-0.358 -0.425,-0.933 -0.125,-1.346Z" style="fill:#37353b;fill-rule:nonzero;"></path>    <path d="M1598.23,1575.24l0.779,-0.424c0.563,-0.026 1.046,0.412 1.075,0.975l2.692,57.058l52.879,-4.479c0.496,-0.046 0.95,0.275 1.079,0.75l10.671,39.8l30.096,-1.071c0.571,-0.021 1.042,0.425 1.067,0.992c0.016,0.562 -0.421,1.037 -0.992,1.058l-30.913,1.1c-0.479,0.016 -0.904,-0.3 -1.029,-0.763l-10.662,-39.754l-53.083,4.5l-0.763,-0.254l-0.346,-0.721l-2.746,-58.117l0.196,-0.65Z" style="fill:#37353b;fill-rule:nonzero;"></path>    <path d="M1568.97,1615.42l0.562,-0.387l56.146,-15.234l0.8,0.108l0.471,0.655l12.021,51.9l41.104,-2.059c0.475,-0.02 0.908,0.284 1.042,0.742l8.441,29.762c0.154,0.546 -0.158,1.113 -0.704,1.267c-0.55,0.154 -1.112,-0.158 -1.267,-0.704l-8.225,-28.975l-41.15,2.063c-0.496,0.024 -0.941,-0.313 -1.05,-0.796l-11.97,-51.7l-55.13,14.95c-0.541,0.15 -1.104,-0.175 -1.254,-0.725l0.163,-0.867Z" style="fill:#37353b;fill-rule:nonzero;"></path>    <path d="M1682.65,1714.85l44.854,-61.6c0.329,-0.459 0.971,-0.554 1.425,-0.221c0.463,0.329 0.559,0.971 0.229,1.425l-44.854,61.6c-0.333,0.458 -0.975,0.558 -1.429,0.225c-0.462,-0.333 -0.558,-0.975 -0.225,-1.429Z" style="fill:#37353b;fill-rule:nonzero;"></path>    <path d="M1725.53,1648.71l0.421,-0.337c0.521,-0.221 1.125,0.016 1.35,0.533l3.938,9.071c0.229,0.521 -0.009,1.121 -0.534,1.35c-0.521,0.225 -1.12,-0.017 -1.35,-0.537l-3.933,-9.063l0.108,-1.017Z" style="fill:#37353b;fill-rule:nonzero;"></path>    <path d="M1717.86,1659.25l0.426,-0.338c0.516,-0.225 1.12,0.017 1.345,0.538l3.938,9.062c0.229,0.521 -0.009,1.121 -0.538,1.354c-0.516,0.221 -1.12,-0.016 -1.346,-0.533l-3.937,-9.071l0.112,-1.012Z" style="fill:#37353b;fill-rule:nonzero;"></path>    <path d="M1712.25,1666.95l0.425,-0.338c0.517,-0.225 1.125,0.013 1.346,0.534l3.942,9.066c0.22,0.525 -0.009,1.125 -0.534,1.35c-0.521,0.225 -1.125,-0.012 -1.354,-0.533l-3.933,-9.067l0.108,-1.012Z" style="fill:#37353b;fill-rule:nonzero;"></path>    <path d="M1677.45,1714.75l0.929,-0.417l9.837,0.967c0.567,0.058 0.975,0.558 0.926,1.117c-0.063,0.571 -0.559,0.979 -1.126,0.925l-9.833,-0.967c-0.566,-0.054 -0.979,-0.554 -0.925,-1.121l0.192,-0.504Z" style="fill:#37353b;fill-rule:nonzero;"></path>    <path d="M1685.12,1704.22c0.204,-0.288 0.55,-0.459 0.925,-0.417l9.837,0.967c0.563,0.054 0.975,0.554 0.921,1.116c-0.054,0.567 -0.554,0.975 -1.117,0.921l-9.837,-0.966c-0.567,-0.051 -0.979,-0.551 -0.925,-1.117l0.196,-0.504Z" style="fill:#37353b;fill-rule:nonzero;"></path>    <path d="M1690.73,1696.52l0.925,-0.421l9.842,0.966c0.562,0.055 0.979,0.559 0.921,1.117c-0.059,0.571 -0.559,0.984 -1.117,0.925l-9.842,-0.962c-0.567,-0.054 -0.975,-0.559 -0.921,-1.121l0.192,-0.504Z" style="fill:#37353b;fill-rule:nonzero;"></path>    <path d="M1640.67,1438.98l-0.121,0.554c-0.596,2.825 1.225,5.625 4.05,6.221l148.275,31.375c2.829,0.592 5.629,-1.225 6.225,-4.054l0.117,-0.55c0.596,-2.825 -1.221,-5.625 -4.05,-6.225l-148.275,-31.367c-2.825,-0.6 -5.625,1.225 -6.221,4.046Z" style="fill:#ebeceb;fill-rule:nonzero;"></path>    <path d="M1773.8,1532.87c-0,-0 -1.113,-39.488 22.121,-60.15c4.308,30.791 -22.121,60.15 -22.121,60.15Z" style="fill:#ebeceb;fill-rule:nonzero;"></path>    <path d="M1795.92,1472.72l-22.121,60.15c-0,-0 -1.113,-39.488 22.121,-60.15Z" style="fill:#00afaf;fill-rule:nonzero;"></path>    <path d="M1758.72,1420.53c-0,0 33.233,21.35 37.2,52.184c-27.859,-13.8 -37.2,-52.184 -37.2,-52.184Z" style="fill:#ebeceb;fill-rule:nonzero;"></path>    <path d="M1795.92,1472.72l-37.2,-52.184c-0,0 33.233,21.35 37.2,52.184Z" style="fill:#00afaf;fill-rule:nonzero;"></path>    <path d="M1858.56,1459.18c0,0 -32.754,22.088 -62.641,13.534c23.696,-20.125 62.641,-13.534 62.641,-13.534Z" style="fill:#ebeceb;fill-rule:nonzero;"></path>    <path d="M1795.92,1472.72l62.641,-13.534c0,0 -32.754,22.088 -62.641,13.534Z" style="fill:#00afaf;fill-rule:nonzero;"></path>    <path d="M1797.22,1457.82c-7.704,-1.633 -15.263,3.292 -16.896,10.991c-1.625,7.701 3.292,15.263 10.996,16.888c7.7,1.633 15.262,-3.292 16.892,-10.988c1.624,-7.7 -3.292,-15.262 -10.992,-16.891Z" style="fill:#ebeceb;fill-rule:nonzero;"></path>    <path d="M1796.23,1462.5c-5.116,-1.083 -10.137,2.187 -11.221,7.304c-1.079,5.113 2.188,10.138 7.3,11.217c5.117,1.083 10.142,-2.188 11.221,-7.3c1.079,-5.113 -2.187,-10.138 -7.3,-11.221Z" style="fill:#00afaf;fill-rule:nonzero;"></path>    <path d="M1573.53,1502.8l-0.329,1.563c-0.596,2.825 1.225,5.621 4.05,6.221l163.075,34.499c2.821,0.6 5.621,-1.225 6.221,-4.05l0.329,-1.558c0.6,-2.829 -1.225,-5.629 -4.05,-6.229l-163.066,-34.496c-2.83,-0.596 -5.63,1.225 -6.23,4.05Z" style="fill:#ebeceb;fill-rule:nonzero;"></path>    <path d="M1718.98,1605.93c0,0 -1.212,-43.17 24.184,-65.758c4.708,33.663 -24.184,65.758 -24.184,65.758Z" style="fill:#ebeceb;fill-rule:nonzero;"></path>    <path d="M1743.17,1540.17l-24.184,65.758c0,0 -1.212,-43.17 24.184,-65.758Z" style="fill:#00afaf;fill-rule:nonzero;"></path>    <path d="M1702.5,1483.12c-0,-0 36.333,23.341 40.671,57.058c-30.455,-15.092 -40.671,-57.058 -40.671,-57.058Z" style="fill:#ebeceb;fill-rule:nonzero;"></path>    <path d="M1743.17,1540.17l-40.671,-57.058c-0,-0 36.333,23.341 40.671,57.058Z" style="fill:#00afaf;fill-rule:nonzero;"></path>    <path d="M1811.65,1525.38c0,-0 -35.808,24.146 -68.487,14.8c25.904,-22.013 68.487,-14.8 68.487,-14.8Z" style="fill:#ebeceb;fill-rule:nonzero;"></path>    <path d="M1743.17,1540.17l68.487,-14.8c0,-0 -35.808,24.146 -68.487,14.8Z" style="fill:#00afaf;fill-rule:nonzero;"></path>    <path d="M1744.59,1523.88c-8.417,-1.775 -16.688,3.604 -18.467,12.021c-1.783,8.421 3.6,16.688 12.017,18.471c8.42,1.779 16.687,-3.6 18.466,-12.021c1.784,-8.417 -3.596,-16.688 -12.016,-18.471Z" style="fill:#ebeceb;fill-rule:nonzero;"></path>    <path d="M1743.51,1529c-5.591,-1.179 -11.083,2.392 -12.266,7.983c-1.184,5.592 2.391,11.084 7.983,12.267c5.592,1.183 11.083,-2.392 12.262,-7.983c1.188,-5.588 -2.387,-11.084 -7.979,-12.267Z" style="fill:#00afaf;fill-rule:nonzero;"></path>    <path d="M1749.53,1334.36c0,0 -116.025,89.104 -230.091,87.905c-114.063,-1.196 -198.638,-6.521 -198.638,-6.521c0,-0 -30.112,1.191 -31.25,-53.171c-1.133,-54.363 -8.733,-59.804 -22.875,-61.396c-14.146,-1.592 -21.417,10.383 -44.183,44.679c-22.767,34.288 -134.879,212.442 -134.879,212.442l137.533,284.566c-0,0 13.508,17.371 29.196,10.355c15.687,-7.017 16.621,-55.992 16.621,-55.992c-0,-0 2.274,-35.454 52.212,-32.887c49.933,2.57 129.942,-9.234 190.958,-43.996l235.396,-385.984Z" style="fill:#55ba63;fill-rule:nonzero;"></path>    <path d="M1290.45,1485.24c10.746,-22.996 23.929,-45.355 32.333,-69.379c-1.287,-0.075 -1.983,-0.121 -1.983,-0.121c0,-0 -30.112,1.191 -31.25,-53.171c-1.133,-54.363 -8.733,-59.804 -22.875,-61.396c-14.146,-1.592 -21.417,10.383 -44.183,44.679c-22.767,34.288 -134.879,212.442 -134.879,212.442l137.533,284.566c-0,0 13.508,17.371 29.196,10.355c15.687,-7.017 16.621,-55.992 16.621,-55.992c-0,-0 0.737,-10.792 9.75,-20.042c-8.884,-45.383 -21.613,-90.641 -23.463,-136.771c-2.133,-53.354 10.6,-106.791 33.2,-155.17Z" style="fill:#00b0b6;fill-rule:nonzero;"></path>    <path d="M1254.34,1853.22c15.687,-7.017 16.621,-55.992 16.621,-55.992c-0,-0 0.737,-10.792 9.75,-20.042c-8.884,-45.383 -21.613,-90.641 -23.463,-136.771c-2.133,-53.354 10.6,-106.791 33.2,-155.17c10.746,-22.996 23.929,-45.355 32.333,-69.379c-1.287,-0.075 -1.983,-0.121 -1.983,-0.121c0,-0 -30.112,1.191 -31.25,-53.171c-1.133,-54.363 -8.733,-59.804 -22.875,-61.396c-11.242,-1.262 -18.167,6.087 -31.958,26.362c8.446,3.242 16.487,7.017 24.212,17.146c5.954,7.809 11.304,16.784 11.388,26.6c0.116,13.767 -10.113,25.492 -21.304,33.5c-11.192,8.017 -24.046,13.925 -33.655,23.779c-9.612,9.855 -15.245,25.663 -8.2,37.492c5.655,9.488 17.217,13.259 26.454,19.308c9.246,6.05 16.85,18.913 10.08,27.642c-5.225,6.738 -16.092,6.7 -21.517,13.288c-10.396,12.629 9.058,29.395 9.467,45.75c0.175,6.996 -3.279,13.479 -5.567,20.091c-4.958,14.346 -4.396,30.521 1.542,44.488c3.516,8.267 8.971,16.683 7.15,25.483c-1.071,5.163 -4.554,9.521 -5.984,14.596c-5.712,20.3 22.567,38.25 17.767,58.783c-3.712,15.854 -23.346,19.167 -28.492,33.517c-0.621,1.729 -0.983,3.571 -0.896,5.404c0.676,13.913 18.05,20.096 23.863,31.934c5.683,11.583 6.417,26.066 -0.796,37.17c-1.683,2.596 -3.716,5.059 -5.858,7.463c5.292,3.308 12.367,5.65 19.971,2.246Z" style="fill:#0cbbc3;fill-rule:nonzero;"></path>    <path d="M1323.17,1764.34c49.933,2.57 129.942,-9.234 190.958,-43.996l235.396,-385.984c0,0 -59.333,45.546 -134.842,71.071c-0.329,4.65 -1.549,9.346 -4.395,14.196c-10.621,18.079 -29.054,31.675 -47.35,41.188c-26.409,13.729 -55.634,21.25 -82.463,34.154c-26.821,12.908 -52.412,33.071 -61.171,61.52c-11.5,37.334 6.804,84.392 -19.645,113.142c-20.755,22.559 -59.08,20.567 -80.384,42.613c-13.125,13.57 -16.825,34.295 -12.625,52.766c4.825,-0.716 10.3,-0.991 16.521,-0.67Z" style="fill:#7dc572;fill-rule:nonzero;"></path>    <path d="M1532.15,1402.69c-0,-0 303.771,-29.959 258.458,-309.292l-112.983,-192.238c-0,0 -20.808,-56.004 -65.8,-29.562c-44.992,26.442 -242.133,142.308 -242.133,142.308c-0,0 -47.83,16.005 -11.58,73.946l174.038,314.838Z" style="fill:#036f42;fill-rule:nonzero;"></path>    <path d="M1594,1244.43c10.008,-26.016 6.675,-56.162 19.183,-81.079c15.967,-31.804 52.8,-46.425 78.158,-71.392c12.617,-12.42 22.396,-27.475 30.417,-43.262c7.3,-14.375 12.813,-29.059 16.7,-44.034l-60.833,-103.5c-0,0 -20.808,-56.004 -65.8,-29.562c-44.992,26.442 -242.133,142.308 -242.133,142.308c-0,0 -47.83,16.005 -11.58,73.946l124.696,225.575c12.996,-1.237 25.838,-3.446 38.342,-7.283c31.496,-9.667 61.012,-30.971 72.85,-61.717Z" style="fill:#f7d8b0;fill-rule:nonzero;"></path>    <path d="M1521.15,1306.15c31.496,-9.667 61.012,-30.971 72.85,-61.717c10.008,-26.016 6.675,-56.162 19.183,-81.079c15.967,-31.804 52.8,-46.425 78.158,-71.392c12.617,-12.42 22.396,-27.475 30.417,-43.262c7.3,-14.375 12.813,-29.059 16.7,-44.034l-17.162,-29.195c-4.238,14.366 -10.371,28.183 -18.129,40.966c-13.976,23.029 -33.371,42.855 -56.688,56.467c-25.363,14.808 -56.5,24.5 -70.892,50.104c-12.283,21.854 -8.45,48.9 -13.62,73.429c-7.013,33.292 -32.25,62.142 -64.313,73.521c-11.308,4.017 -23.133,5.909 -35.117,6.796l20.271,36.679c12.996,-1.237 25.838,-3.446 38.342,-7.283Z" style="fill:#cca78a;fill-rule:nonzero;"></path>    <path d="M1544.05,1066.7l7.883,-5.85l-43.358,-58.429l-7.879,5.842l43.354,58.437Z" style="fill:#0a050b;fill-rule:nonzero;"></path>    <path d="M1533.25,879.392l4.75,6.404l35.033,107.266l-128.7,95.501l-3.358,-4.517l92.275,-204.654Z" style="fill:#d2d1c7;fill-rule:nonzero;"></path>    <path d="M1533.25,879.392l-122.413,90.829l30.138,113.825l127.804,-94.838l-35.529,-109.816Z" style="fill:#fff9e6;fill-rule:nonzero;"></path>    <path d="M1528.1,896.096l-107.179,79.529l25.2,91.708l110.279,-81.825l-28.3,-89.412Z" style="fill:#048f9c;fill-rule:nonzero;"></path>    <path d="M1446.12,1067.33l-25.2,-91.708l1.62,-1.208c15.459,9.054 62.642,29.791 129.296,-3.321l4.563,14.412l-110.279,81.825Z" style="fill:#00a0a8;fill-rule:nonzero;"></path>    <path d="M1530.63,1013.48l-31.512,-102.654l-4.238,1.3l31.509,102.654l4.241,-1.3Z" style="fill:#fff9e6;fill-rule:nonzero;"></path>    <path d="M1505.04,1032.47l-31.509,-102.659l-4.237,1.301l31.508,102.658l4.238,-1.3Z" style="fill:#fff9e6;fill-rule:nonzero;"></path>    <path d="M1479.45,1051.46l-31.508,-102.654l-4.238,1.296l31.512,102.658l4.234,-1.3Z" style="fill:#fff9e6;fill-rule:nonzero;"></path>    <path d="M1433,1024.63l114.008,-84.596l-2.641,-3.562l-114.009,84.596l2.642,3.562Z" style="fill:#fff9e6;fill-rule:nonzero;"></path>    <path d="M1480.25,1686.14l-4.592,0.559l4.134,34.054l4.591,-0.554l-4.133,-34.059Z" style="fill:#0a050b;fill-rule:nonzero;"></path>    <path d="M1440.98,1765.41l-0.45,-3.733l10.667,-52.125l75.017,-9.108l0.316,2.637l-85.55,62.329Z" style="fill:#d2d1c7;fill-rule:nonzero;"></path>    <path d="M1440.98,1765.41l71.35,-8.658l14.2,-53.671l-74.491,9.042l-11.059,53.287Z" style="fill:#fff9e6;fill-rule:nonzero;"></path>    <path d="M1446.99,1759.77l62.474,-7.588l11.067,-43.454l-64.275,7.8l-9.266,43.242Z" style="fill:#048f9c;fill-rule:nonzero;"></path>    <path d="M1520.53,1708.73l-11.067,43.454l-0.95,0.121c-4.22,-7.317 -18.716,-26.825 -53.749,-28.804l1.491,-6.971l64.275,-7.8Z" style="fill:#00a0a8;fill-rule:nonzero;"></path>    <path d="M1473.34,1711.08l-11.042,49.417l2.038,0.454l11.041,-49.413l-2.037,-0.458Z" style="fill:#fff9e6;fill-rule:nonzero;"></path>    <path d="M1488.25,1709.27l-11.041,49.412l2.041,0.454l11.038,-49.412l-2.038,-0.454Z" style="fill:#fff9e6;fill-rule:nonzero;"></path>    <path d="M1503.17,1707.45l-11.042,49.413l2.042,0.458l11.037,-49.417l-2.037,-0.454Z" style="fill:#fff9e6;fill-rule:nonzero;"></path>    <path d="M1515.94,1729.28l-66.45,8.067l0.25,2.075l66.454,-8.067l-0.254,-2.075Z" style="fill:#fff9e6;fill-rule:nonzero;"></path>    <path d="M1553.8,1024.79c0.896,-2.234 1.933,-4.567 3.896,-5.959c2.175,-1.545 5.046,-1.616 7.712,-1.479c9.029,0.458 17.971,2.638 26.196,6.392c5.025,-17.046 11.825,-33.563 20.258,-49.204c2.713,-5.038 5.879,-10.255 10.992,-12.817c9.279,-4.646 20.142,1.275 28.796,7.004c14.833,9.825 29.675,19.65 44.512,29.475c-11.779,18.808 -30.608,32.054 -49.929,42.963c-18.554,10.479 -37.862,18.837 -57.787,26.3c-16.609,6.216 -26.084,13.8 -45.025,9.795c-0.546,-0.112 -1.121,-0.258 -1.496,-0.662c-0.629,-0.675 -0.438,-1.742 -0.209,-2.637c4.367,-16.938 5.388,-32.859 12.084,-49.171Z" style="fill:#e7c9a0;fill-rule:nonzero;"></path>    <path d="M1723.75,1141.05l-14.021,10.646l-34.071,-44.871l14.021,-10.646l34.071,44.871Z" style="fill:#9d5b44;fill-rule:nonzero;"></path>    <path d="M1628.43,1029.7c0,0 17.204,130.404 69.096,91.004c51.087,-38.792 -69.096,-91.004 -69.096,-91.004Z" style="fill:#008c51;fill-rule:nonzero;"></path>    <path d="M1628.43,1029.7l69.096,91.004c51.087,-38.792 -69.096,-91.004 -69.096,-91.004Z" style="fill:#065b3a;fill-rule:nonzero;"></path>    <path d="M1704.26,1220.91l-15.466,13.8l-44.171,-49.5l15.471,-13.8l44.166,49.5Z" style="fill:#9d5b44;fill-rule:nonzero;"></path>    <path d="M1582.01,1099.07c0,-0 32.33,151.479 89.579,100.391c56.355,-50.283 -89.579,-100.391 -89.579,-100.391Z" style="fill:#008c51;fill-rule:nonzero;"></path>    <path d="M1582.01,1099.07l89.579,100.391c56.355,-50.283 -89.579,-100.391 -89.579,-100.391Z" style="fill:#065b3a;fill-rule:nonzero;"></path>    <path d="M1575.83,1345.99l-17.646,10.879l-34.821,-56.471l17.65,-10.883l34.817,56.475Z" style="fill:#9d5b44;fill-rule:nonzero;"></path>    <path d="M1476.81,1204.62c0,-0 5.296,154.8 70.609,114.533c64.296,-39.642 -70.609,-114.533 -70.609,-114.533Z" style="fill:#008c51;fill-rule:nonzero;"></path>    <path d="M1476.81,1204.62l70.609,114.533c64.296,-39.642 -70.609,-114.533 -70.609,-114.533Z" style="fill:#065b3a;fill-rule:nonzero;"></path>    <path d="M1611.35,1293.72c-0.146,-3.554 1.767,-7.125 4.808,-8.971c3.038,-1.85 7.083,-1.913 10.179,-0.15c-1.071,-5.667 4.717,-10.029 9.738,-12.863c-3.758,-4.887 -6.796,-10.691 -6.713,-16.854c0.125,-9.396 7.371,-17.192 15.171,-22.433c4.908,-3.3 10.371,-6.046 16.25,-6.7c5.879,-0.659 12.246,1.062 16.171,5.491c-0.062,-4.479 2.675,-8.879 6.729,-10.8c4.05,-1.916 9.188,-1.254 12.617,1.63c1.862,-4.442 6.104,-7.8 10.854,-8.592c4.75,-0.788 9.85,1.021 13.05,4.621l-108.308,80.429l-0.546,-4.808Z" style="fill:#065b3a;fill-rule:nonzero;"></path>    <path d="M1538.1,1367.13c0.35,-3.537 2.746,-6.8 6.013,-8.208c3.266,-1.413 7.283,-0.904 10.1,1.267c-0.271,-5.759 6.07,-9.271 11.437,-11.376c-3.041,-5.362 -5.237,-11.537 -4.296,-17.629c1.434,-9.283 9.7,-15.991 18.15,-20.096c5.321,-2.583 11.113,-4.541 17.025,-4.366c5.917,0.171 11.984,2.758 15.246,7.696c0.567,-4.446 3.896,-8.421 8.171,-9.759c4.275,-1.333 9.275,0.042 12.267,3.375c2.462,-4.137 7.133,-6.875 11.95,-6.991c4.812,-0.117 9.612,2.379 12.275,6.391l-118.471,64.534l0.133,-4.838Z" style="fill:#065b3a;fill-rule:nonzero;"></path>    <path d="M1596.48,935.096c-0.708,-1.575 -1.491,-3.242 -2.958,-4.154c-2.987,-1.863 -6.725,0.304 -10.092,1.341c-5.933,1.821 -12.604,-0.246 -17.333,-4.271c-4.729,-4.025 -7.717,-9.758 -9.604,-15.67c-0.854,-2.675 -1.509,-5.538 -0.854,-8.267c0.654,-2.729 2.97,-5.237 5.775,-5.254c5.17,-0.025 6.72,6.816 7.925,11.841c0.754,3.151 2.104,6.317 4.645,8.326c2.538,2.008 6.492,2.475 8.95,0.37c2.275,-1.941 2.63,-5.446 1.696,-8.291c-0.937,-2.842 -2.9,-5.209 -4.725,-7.579c-8.241,-10.676 -14.521,-22.859 -18.433,-35.767c-1.2,-3.95 -2.167,-8.275 -0.712,-12.142c1.454,-3.866 6.291,-6.683 9.858,-4.6c1.971,1.15 3.004,3.375 3.896,5.475c3.4,7.983 6.521,16.083 9.362,24.279c3.029,0.996 6.192,-2.075 6.425,-5.254c0.234,-3.183 -1.562,-6.146 -3.537,-8.65c-1.975,-2.504 -4.254,-4.892 -5.292,-7.908c-0.446,-1.279 -0.633,-2.738 -0.05,-3.958c1.067,-2.225 4.283,-2.621 6.454,-1.451c2.171,1.176 3.529,3.396 4.792,5.517c3.212,5.413 6.492,11 7.433,17.221c0.946,6.221 -0.996,13.312 -6.308,16.687c-1.492,0.946 -3.354,1.767 -3.817,3.476c-0.312,1.158 0.15,2.375 0.6,3.491c5.554,13.629 11.108,27.259 16.663,40.888c1.05,2.566 5.429,15.425 -1.513,13.704c-3.229,-0.804 -7.858,-16.317 -9.246,-19.4Z" style="fill:#065b3a;fill-rule:nonzero;"></path>    <path d="M1416.33,1114.57c-2.633,-0.963 -5.537,-0.625 -8.32,-0.959c-5.984,-0.72 -11.23,-4.583 -14.934,-9.337c-3.708,-4.754 -6.087,-10.379 -8.429,-15.933c-1.029,-2.446 -1.983,-5.5 -0.283,-7.529c1.958,-2.346 6.012,-1.242 7.896,1.158c1.883,2.404 2.379,5.575 3.462,8.425c1.075,2.854 3.279,5.758 6.329,5.854c0.813,0.025 1.684,-0.192 2.221,-0.808c1.112,-1.271 0.192,-3.234 -0.746,-4.642c-7.316,-10.954 -14.633,-21.912 -21.95,-32.871c-2.271,-3.391 -4.308,-8.529 -1.058,-10.996c1.771,-1.35 4.396,-0.996 6.246,0.234c1.854,1.233 3.104,3.158 4.291,5.037c9.375,14.804 18.055,30.05 26,45.663c2.25,0.933 4.821,-1.255 5.134,-3.671c0.316,-2.408 -0.93,-4.742 -2.338,-6.729c-1.404,-1.984 -3.046,-3.896 -3.7,-6.242c-0.333,-1.204 -0.371,-2.567 0.296,-3.629c1.171,-1.85 4.037,-1.896 5.858,-0.671c1.817,1.229 2.842,3.296 3.788,5.275c1.721,3.608 3.441,7.217 5.162,10.817c1.854,3.891 3.609,8.841 0.875,12.175c-1.366,1.662 -3.625,2.508 -4.687,4.379c-1.071,1.896 -0.592,4.304 0.342,6.271c0.933,1.962 2.279,3.737 2.983,5.791c1.637,4.792 -2.309,8.896 -5.867,4.821c-3.462,-3.958 -2.504,-9.662 -8.571,-11.883Z" style="fill:#065b3a;fill-rule:nonzero;"></path>    <path d="M1386.31,1467.2l0.171,-0.021c0.75,-0.025 1.375,0.559 1.404,1.308l7.225,208.863c0.021,0.683 -0.462,1.271 -1.133,1.383l-15.713,2.571c-0.674,0.109 -1.325,-0.3 -1.516,-0.958l-58.609,-200.458c-0.212,-0.717 0.196,-1.471 0.917,-1.676c0.713,-0.199 1.471,0.196 1.679,0.917l58.271,199.313l13.358,-2.184l-7.191,-207.679c-0.021,-0.687 0.475,-1.275 1.137,-1.379Z" style="fill:#37353b;fill-rule:nonzero;"></path>    <path d="M1386.61,1476c0.392,-0.062 0.801,0.042 1.126,0.325c0.554,0.5 0.599,1.363 0.099,1.913l-50.391,56.079l53.812,44.842c0.505,0.42 0.638,1.137 0.313,1.708l-26.896,47.271l29.258,26.912c0.55,0.508 0.588,1.363 0.079,1.917c-0.508,0.55 -1.358,0.583 -1.912,0.079l-30.05,-27.642c-0.467,-0.433 -0.571,-1.125 -0.262,-1.671l26.866,-47.22l-54.017,-45.017l-0.491,-0.942l0.346,-1.004l51.333,-57.116l0.787,-0.434Z" style="fill:#37353b;fill-rule:nonzero;"></path>    <path d="M1321.85,1486.6l0.884,0.158l66.858,37.78l0.646,0.841l-0.159,1.05l-36.858,59.888l40.513,36.191c0.466,0.425 0.591,1.113 0.283,1.667l-19.667,35.779c-0.362,0.654 -1.179,0.896 -1.846,0.538c-0.654,-0.363 -0.891,-1.188 -0.533,-1.846l19.154,-34.834l-40.554,-36.229c-0.488,-0.441 -0.592,-1.166 -0.25,-1.725l36.717,-59.654l-65.638,-37.092c-0.65,-0.366 -0.879,-1.191 -0.508,-1.845c0.208,-0.371 0.567,-0.605 0.958,-0.667Z" style="fill:#37353b;fill-rule:nonzero;"></path>    <path d="M1336.39,1685.41l99.258,-16.238c0.733,-0.125 1.429,0.375 1.554,1.113c0.117,0.741 -0.383,1.437 -1.121,1.554l-99.254,16.241c-0.737,0.121 -1.433,-0.379 -1.55,-1.116c-0.121,-0.738 0.379,-1.434 1.113,-1.554Z" style="fill:#37353b;fill-rule:nonzero;"></path>    <path d="M1438,1663.09l0.708,0.071c0.696,0.275 1.042,1.059 0.775,1.755l-4.716,12.166c-0.267,0.7 -1.046,1.046 -1.75,0.775c-0.696,-0.271 -1.042,-1.054 -0.775,-1.75l4.717,-12.171c0.179,-0.466 0.587,-0.771 1.041,-0.846Z" style="fill:#37353b;fill-rule:nonzero;"></path>    <path d="M1421.03,1665.87l0.709,0.07c0.695,0.275 1.041,1.055 0.77,1.755l-4.712,12.166c-0.267,0.7 -1.046,1.042 -1.75,0.775c-0.696,-0.275 -1.042,-1.058 -0.775,-1.754l4.716,-12.166c0.18,-0.467 0.588,-0.776 1.042,-0.846Z" style="fill:#37353b;fill-rule:nonzero;"></path>    <path d="M1408.62,1667.9l0.708,0.075c0.696,0.266 1.042,1.05 0.775,1.746l-4.717,12.17c-0.266,0.7 -1.045,1.042 -1.75,0.775c-0.695,-0.274 -1.041,-1.058 -0.77,-1.754l4.712,-12.166c0.179,-0.463 0.588,-0.771 1.042,-0.846Z" style="fill:#37353b;fill-rule:nonzero;"></path>    <path d="M1331.59,1680.5c0.454,-0.071 0.941,0.087 1.258,0.471l8.346,10.033c0.475,0.579 0.396,1.429 -0.175,1.904c-0.584,0.479 -1.429,0.404 -1.909,-0.171l-8.341,-10.033c-0.479,-0.575 -0.4,-1.429 0.175,-1.904l0.646,-0.3Z" style="fill:#37353b;fill-rule:nonzero;"></path>    <path d="M1348.57,1677.72c0.458,-0.075 0.941,0.087 1.258,0.471l8.346,10.029c0.475,0.579 0.4,1.429 -0.175,1.908c-0.584,0.475 -1.433,0.4 -1.909,-0.175l-8.341,-10.029c-0.479,-0.579 -0.4,-1.429 0.175,-1.908l0.646,-0.296Z" style="fill:#37353b;fill-rule:nonzero;"></path>    <path d="M1360.98,1675.69c0.454,-0.079 0.938,0.087 1.258,0.466l8.342,10.034c0.483,0.57 0.404,1.425 -0.171,1.908c-0.579,0.475 -1.429,0.396 -1.908,-0.175l-8.342,-10.033c-0.479,-0.571 -0.4,-1.425 0.175,-1.909l0.646,-0.291Z" style="fill:#37353b;fill-rule:nonzero;"></path>    <path d="M1410.1,1670.45l-0.404,-0.117l-0.208,-1.016c0.171,-0.259 4.316,-6.446 14.412,-14.509c9.3,-7.408 25.592,-17.829 50.471,-25.391c79.421,-24.134 181.617,-0.742 253.358,23.129c0.388,0.137 0.592,0.546 0.467,0.933c-0.133,0.384 -0.537,0.6 -0.929,0.463c-71.475,-23.796 -173.275,-47.134 -252.317,-23.167c-47.212,14.304 -64.075,39.104 -64.241,39.35l-0.609,0.325Z" style="fill:#37353b;fill-rule:nonzero;"></path>    <path d="M1365.37,1680.65l-0.546,-0.241l0.054,-1.034c0.396,-0.354 40.075,-35.792 102.917,-54.471c36.908,-10.975 74.466,-14.104 111.658,-9.329c46.467,5.988 92.446,24.425 136.663,54.813l0.191,1.02l-1.021,0.192c-44.021,-30.258 -89.787,-48.617 -136.02,-54.567c-36.963,-4.754 -74.342,-1.637 -111.059,9.271c-62.521,18.592 -101.958,53.809 -102.35,54.163l-0.487,0.183Z" style="fill:#37353b;fill-rule:nonzero;"></path>    <path d="M1696.81,1698.33l-0.404,-0.125c-101.975,-67.996 -189.016,-93.55 -258.679,-76.004c-32.267,8.129 -54.125,24.375 -66.779,36.563c-13.696,13.196 -19.834,24.587 -19.896,24.695l-0.987,0.305l-0.305,-0.992c0.242,-0.458 25.25,-46.275 87.609,-61.988c70.108,-17.679 157.521,7.975 259.854,76.201l0.204,1.02l-0.617,0.325Z" style="fill:#37353b;fill-rule:nonzero;"></path>    <path d="M1684.31,1716.78l-0.541,-0.233c-63.134,-69.563 -127.938,-104.788 -192.704,-104.788c-1.842,0 -3.676,0.025 -5.521,0.088c-90.392,2.796 -149.109,74.854 -149.692,75.579l-1.033,0.113l-0.109,-1.03c0.588,-0.733 59.73,-73.308 150.792,-76.129c1.85,-0.058 3.713,-0.083 5.571,-0.083c65.2,-0 130.358,35.383 193.779,105.254l-0.042,1.038l-0.5,0.191Z" style="fill:#37353b;fill-rule:nonzero;"></path>    <path d="M1380.58,1442.53l15.812,-1.879l6.017,50.608l-15.816,1.884l-6.013,-50.613Z" style="fill:#9d5b44;fill-rule:nonzero;"></path>    <path d="M1403.9,1573.05c0,-0 46.329,-109.592 -12.2,-102.637c-57.617,6.849 12.2,102.637 12.2,102.637Z" style="fill:#008c51;fill-rule:nonzero;"></path>    <path d="M1403.9,1573.05l-12.2,-102.637c-57.617,6.849 12.2,102.637 12.2,102.637Z" style="fill:#065b3a;fill-rule:nonzero;"></path>    <path d="M1290.47,1524.09l15.817,-1.88l6.012,50.609l-15.817,1.879l-6.012,-50.608Z" style="fill:#9d5b44;fill-rule:nonzero;"></path>    <path d="M1313.8,1654.61c0,0 46.329,-109.591 -12.2,-102.633c-57.617,6.846 12.2,102.633 12.2,102.633Z" style="fill:#008c51;fill-rule:nonzero;"></path>    <path d="M1313.8,1654.61l-12.2,-102.633c-57.617,6.846 12.2,102.633 12.2,102.633Z" style="fill:#065b3a;fill-rule:nonzero;"></path>    <path d="M1470.72,1509.87l10.475,-2.83l9.05,33.53l-10.475,2.829l-9.05,-33.529Z" style="fill:#9d5b44;fill-rule:nonzero;"></path>    <path d="M1499.33,1595.57c0,-0 20.421,-78.467 -18.354,-68c-38.175,10.304 18.354,68 18.354,68Z" style="fill:#008c51;fill-rule:nonzero;"></path>    <path d="M1499.33,1595.57l-18.354,-68c-38.175,10.304 18.354,68 18.354,68Z" style="fill:#065b3a;fill-rule:nonzero;"></path>    <path d="M1512.2,1514.11l9.85,-4.554l14.575,31.521l-9.85,4.554l-14.575,-31.521Z" style="fill:#9d5b44;fill-rule:nonzero;"></path>    <path d="M1554.85,1593.75c0,0 6.892,-80.783 -29.562,-63.925c-35.888,16.596 29.562,63.925 29.562,63.925Z" style="fill:#008c51;fill-rule:nonzero;"></path>    <path d="M1554.85,1593.75l-29.562,-63.925c-35.888,16.596 29.562,63.925 29.562,63.925Z" style="fill:#065b3a;fill-rule:nonzero;"></path>    <path d="M1598.2,1532.94l4.879,-4.763l15.242,15.621l-4.879,4.758l-15.242,-15.616Z" style="fill:#9d5b44;fill-rule:nonzero;"></path>    <path d="M1640.16,1571.19c-0,0 -12.842,-49.299 -30.905,-31.679c-17.787,17.35 30.905,31.679 30.905,31.679Z" style="fill:#008c51;fill-rule:nonzero;"></path>    <path d="M1640.16,1571.19l-30.905,-31.679c-17.787,17.35 30.905,31.679 30.905,31.679Z" style="fill:#065b3a;fill-rule:nonzero;"></path>    <path d="M1543.84,1494.15c-1.004,2.229 -3.275,3.838 -5.716,4.034c-2.438,0.204 -4.938,-1.005 -6.296,-3.038c-1.087,3.813 -5.992,4.712 -9.946,4.908c0.804,4.159 0.888,8.663 -1.062,12.425c-2.967,5.734 -9.817,8.296 -16.221,9.121c-4.038,0.517 -8.238,0.525 -12.05,-0.883c-3.817,-1.409 -7.204,-4.425 -8.254,-8.354c-1.338,2.775 -4.375,4.633 -7.454,4.566c-3.08,-0.066 -6.034,-2.058 -7.255,-4.883c-2.508,2.158 -6.15,2.917 -9.312,1.937c-3.167,-0.974 -5.742,-3.658 -6.6,-6.85l91.316,-16.104l-1.15,3.121Z" style="fill:#065b3a;fill-rule:nonzero;"></path>    <path d="M1456.39,1438.47c-1.392,2.012 -3.917,3.175 -6.35,2.933c-2.434,-0.246 -4.68,-1.892 -5.65,-4.138c-1.759,3.555 -6.742,3.55 -10.667,3.026c0.042,4.237 -0.7,8.679 -3.296,12.024c-3.962,5.101 -11.167,6.376 -17.616,6.021c-4.055,-0.225 -8.192,-0.975 -11.684,-3.054c-3.5,-2.075 -6.279,-5.658 -6.596,-9.708c-1.825,2.479 -5.15,3.758 -8.162,3.133c-3.017,-0.625 -5.563,-3.121 -6.25,-6.117c-2.859,1.663 -6.579,1.751 -9.513,0.213c-2.933,-1.533 -4.979,-4.638 -5.241,-7.937l92.716,0.741l-1.691,2.863Z" style="fill:#065b3a;fill-rule:nonzero;"></path>    <path d="M1241.68,1421.09c-6.529,3.383 -12.296,8.912 -14.3,15.987c-0.637,2.258 -0.833,4.846 0.45,6.809c1.096,1.687 3.058,2.579 4.967,3.233c11.242,3.833 24.287,1.908 33.941,-5.021c5.263,-3.779 9.796,-9.942 8.471,-16.287c-1.183,-5.684 -6.487,-12.559 -12.746,-11.376c-6.929,1.313 -14.504,3.401 -20.783,6.655Z" style="fill:#00b0b6;fill-rule:nonzero;"></path>    <path d="M1213.59,1455.35c-0.108,1.875 -0.199,3.854 0.642,5.538c1.038,2.083 3.258,3.258 5.354,4.275c1.15,0.55 2.313,1.1 3.559,1.387c4.408,1.017 9.275,-1.787 10.904,-6.012c1.629,-4.225 0.071,-9.367 -3.417,-12.246c-7.454,-6.154 -16.504,-2.188 -17.042,7.058Z" style="fill:#00b0b6;fill-rule:nonzero;"></path>    <path d="M1230.41,1786.7c1.304,0.792 2.788,1.404 4.317,1.371c2.808,-0.067 5.125,-2.279 6.562,-4.692c2.263,-3.804 3.038,-8.575 1.621,-12.766c-1.42,-4.196 -5.166,-7.63 -9.554,-8.217c-15.225,-2.062 -11.758,18.963 -2.946,24.304Z" style="fill:#00b0b6;fill-rule:nonzero;"></path>    <path d="M1221.24,1752.32c0.48,0.679 1.267,1.075 2.059,1.333c2.35,0.767 5.046,0.442 7.121,-0.9c2.075,-1.346 3.475,-3.704 3.6,-6.171c0.037,-0.679 -0.025,-1.383 -0.321,-2c-3.759,-7.767 -16.95,1.383 -12.459,7.738Z" style="fill:#0cbbc3;fill-rule:nonzero;"></path>    <path d="M1421.85,1699.59l-5.587,0.679l5.029,41.45l5.592,-0.679l-5.034,-41.45Z" style="fill:#0a050b;fill-rule:nonzero;"></path>    <path d="M1374.07,1796.07l-0.55,-4.546l12.983,-63.438l91.292,-11.079l0.387,3.213l-104.112,75.85Z" style="fill:#d2d1c7;fill-rule:nonzero;"></path>    <path d="M1374.07,1796.07l86.825,-10.542l17.287,-65.308l-90.65,11l-13.462,64.85Z" style="fill:#fff9e6;fill-rule:nonzero;"></path>    <path d="M1381.38,1789.2l76.025,-9.229l13.471,-52.884l-78.225,9.492l-11.271,52.621Z" style="fill:#048f9c;fill-rule:nonzero;"></path>    <path d="M1470.88,1727.08l-13.471,52.884l-1.154,0.141c-5.133,-8.904 -22.779,-32.637 -65.413,-35.054l1.813,-8.479l78.225,-9.492Z" style="fill:#00a0a8;fill-rule:nonzero;"></path>    <path d="M1413.45,1729.94l-13.438,60.133l2.484,0.558l13.429,-60.137l-2.475,-0.554Z" style="fill:#fff9e6;fill-rule:nonzero;"></path>    <path d="M1431.6,1727.74l-13.433,60.138l2.483,0.554l13.433,-60.137l-2.483,-0.555Z" style="fill:#fff9e6;fill-rule:nonzero;"></path>    <path d="M1449.75,1725.54l-13.429,60.134l2.483,0.554l13.425,-60.133l-2.479,-0.555Z" style="fill:#fff9e6;fill-rule:nonzero;"></path>    <path d="M1465.29,1752.1l-80.867,9.813l0.308,2.529l80.867,-9.817l-0.308,-2.525Z" style="fill:#fff9e6;fill-rule:nonzero;"></path>  </g></svg>